<?xml version="1.0" encoding="UTF-8"?>
<svg id="Lag_1" data-name="Lag 1" xmlns="http://www.w3.org/2000/svg" viewBox="0 0 199.54 21.64">
  <defs>
    <style>
      .cls-1 {
        fill: #b17f4a;
      }

      .cls-1, .cls-2 {
        stroke: #936037;
        stroke-miterlimit: 10;
      }

      .cls-2 {
        fill: none;
        stroke-linecap: round;
      }
    </style>
  </defs>
  <path class="cls-1" d="M199.04,8.39c0,8.47-43.9,12.75-98.69,12.75S.5,19.81.5,11.34,45.56.59,100.35.59s98.69-.67,98.69,7.8Z"/>
  <path class="cls-2" d="M59.01,1.28c-.61.1-1.16.42-1.68.78-1.84,1.27-3.38,3.04-4.45,5.1"/>
  <path class="cls-2" d="M82.83.66c-.5,0-.98.23-1.42.49-2.17,1.31-3.81,3.59-4.46,6.18"/>
  <path class="cls-2" d="M107.25.54c-.79-.05-1.61-.1-2.35.19-.6.24-1.1.67-1.57,1.13-1.43,1.4-2.64,3.07-3.56,4.92"/>
  <path class="cls-2" d="M126.98.58c-2.12-.19-4.24.76-5.82,2.28s-2.67,3.6-3.34,5.78"/>
  <path class="cls-2" d="M146.21.6c-.28-.1-.56.11-.8.32-1.49,1.35-2.69,3.52-2.77,5.96"/>
</svg>