<svg width="561" height="450" viewBox="0 0 561 450" fill="none" xmlns="http://www.w3.org/2000/svg">
<path d="M210.03 21.46C223.9 10.38 246.46 4.83998 263.83 2.34998C272.02 1.16998 279.76 0.299984 287.98 1.78998C288.15 2.60998 287.76 2.75998 287.19 3.15998C284.77 4.86998 273.48 5.08998 269.65 5.76998C234.45 12.01 199.13 32.27 211.57 73.6C224.46 116.44 272.18 143.31 248.09 194.24C246.27 198.1 244.79 201.96 240.81 203.74C230.46 208.38 221.89 212.98 214.33 221.87C212.95 223.49 210.44 228.07 209.28 228.81C206.48 230.61 201.7 228.79 198.5 228.6C192.02 228.22 187.28 230.66 180.99 230.51C180.5 230.06 183.15 226.73 183.62 226.19C187.98 221.21 194.45 216.13 199.23 211.1C222.32 186.87 242.14 161.73 227.13 126.62C222.31 115.33 214.2 107.7 208.26 97.05C194.61 72.61 184.2 42.11 210.03 21.46Z" fill="#362311" stroke="#362311" stroke-width="2" stroke-miterlimit="10"/>
<path d="M279.68 210.26C284.59 211.21 289.25 208.85 293.99 208.46C298.57 208.09 310.2 208.39 314.5 209.53C316.04 209.94 318.02 211.05 318.68 212.53L306.45 215.64C301.2 217.8 292.4 220.84 291.08 227.13C290.77 228.59 290.33 231.31 292.16 231.85C296.56 233.17 296.42 228.47 298.78 226.2C300.22 224.82 304.86 222.66 306.85 221.8C319.93 216.16 337.2 215.4 350.73 219.83C354.75 221.14 358.19 223.86 362.35 224.28C362.54 225.31 361.88 225.42 361.15 225.71C359.14 226.5 353.58 226.7 350.75 227.3C342.31 229.1 326.3 235.28 327.79 246.12C327.92 247.06 328.06 247.84 329.1 248.15C334.61 249.79 332.97 244.32 335.28 241.09C341.73 232.07 365.12 231.42 374.91 233.06C393.32 236.14 409.22 250.89 410.35 270.05C411.54 290.09 399.37 301.37 381.07 306.04C373.65 307.93 358.32 309.34 350.62 309.17C347.36 309.09 343.07 307.5 339.56 307.24C322.34 305.96 302.03 304.3 286.08 296.91C280.31 294.23 283.56 294.2 284.87 289.5C294.3 255.69 251.89 244.47 226.55 249.43C224.2 249.89 220.08 252.06 217.94 250.88C216.97 250.35 214.42 243.49 214.21 242.14C211.49 224.84 234.56 211.36 248.53 207.15C258.46 204.16 269.56 203.45 279.83 204.62C280.29 206.22 277.98 205.68 277.45 206.1C277.74 207.76 277.64 209.86 279.68 210.26Z" fill="#362311" stroke="#362311" stroke-width="2" stroke-miterlimit="10"/>
<path d="M175.23 239.38C176.27 238.19 186.8 236.05 187.65 236.8C188.07 239.62 190.17 242.11 193.2 242.04C194.43 242.01 198.54 240.84 199.26 239.89C200.62 238.11 197.44 236.72 198.73 236.01C210.32 234.18 207.22 239.56 208.93 246.94C209.37 248.82 211.74 252.34 210.98 254C210.37 255.34 205.29 257.09 203.58 258.12C197.4 261.84 189.35 270.4 187.37 277.4C186.74 279.6 186.12 289.95 184.51 290.41C183.83 290.6 172.84 285.73 171.38 284.95C158.09 277.8 148.6 262.83 159.41 248.98C164.43 242.56 167.34 244.43 174.7 243.41C174.98 242.08 174.27 240.47 175.23 239.38Z" fill="#362311" stroke="#362311" stroke-width="2" stroke-miterlimit="10"/>
<path d="M199.7 268.87C203.41 289.68 234.26 287.84 249.7 283.6C255.63 281.97 264.84 278.92 261.2 270.95C256.72 261.15 231.45 257.49 222.46 260.69C217.57 262.43 212.51 271.67 218.89 273.91C220.61 274.52 229.52 276.52 231.14 276.57C234.2 276.67 241.52 274.91 240.51 270.63C237.37 268.05 233.11 269.91 229.69 269.87C228.38 269.86 223.6 269.26 224.2 267.24C229.51 263.86 238.18 265.78 244.04 267.47C246.83 268.27 257.9 271.48 253.93 275.84C252.35 277.56 250.79 276.74 248.94 277.08C237.9 279.12 218.68 283.73 209.52 274.64C206.14 271.28 205.81 268.28 208.62 264.6C214.75 256.54 235.97 253.78 245.54 254.47C260.17 255.53 281.67 265.49 280.25 282.96C277.72 313.92 208.82 322.32 194.34 294.13C189.79 285.29 191.6 274.85 199.7 268.87Z" fill="#362311" stroke="#362311" stroke-width="2" stroke-miterlimit="10"/>
<path d="M98.47 263.6C98.47 261.17 101.75 259.59 103.6 258.42C120.09 247.91 140.66 237.25 158.12 228.03C161.97 226 173.67 221.29 175.95 219C180.83 214.11 169.84 216.56 168.29 216.63C146.08 217.53 123.32 217.3 101.13 217.59C95.44 217.66 89.7 217.75 84.07 217.08L174.27 191.19L173.57 189.74C149.3 184.23 125.16 177.78 100.87 172.25C98.62 171.73 84.67 169.26 84.07 168.65C83.12 167.67 86.51 166.96 86.85 166.88C95.62 164.64 105.2 166.54 114.04 166.76C132.22 167.2 151.34 164.42 169.23 165.31C172.28 165.46 175.06 167.3 178.03 165.22V163.45L97.99 121.18L187.7 140.84L187.03 137.93C175.97 129.74 166.62 119.65 156.53 110.39C144.78 99.6199 132.3 89.4899 121.5 77.7899C122.18 76.8299 122.16 77.2899 122.81 77.4199C126.28 78.0999 132.44 82.6999 135.88 84.5099C154.15 94.1399 172.84 102.93 190.91 112.95C193.64 114.47 196.47 116.82 199.2 118.09C200.19 118.55 201.9 119.6 202.84 118.84C203.42 118.37 203.54 117.96 203.46 117.23C203.13 113.98 193.5 102.1 191.06 98.4199C181.39 83.8799 172.61 68.7399 162.67 54.3799C160.85 51.6499 162.55 47.6599 158.92 46.6199L159.87 45.4299C159.83 45.8499 159.82 46.1399 160.24 46.3499C166.05 49.3299 178.65 60.7499 183.88 65.7999C193.51 75.1099 193.58 83.3299 199.45 94.3399C210.4 114.88 228.81 133.07 226.56 158.34C224.31 183.65 188.64 210.81 172.59 229.07C171.01 230.86 170.16 233.2 168.29 234.84C166.46 236.44 164.05 237.12 162.05 238.67C155.93 243.44 153.8 249.32 145.59 251.95C134.39 255.54 121.42 257.87 109.88 260.86C108.16 261.3 99.32 264.41 98.47 263.6Z" fill="#362311" stroke="#362311" stroke-width="2" stroke-miterlimit="10"/>
<path d="M440.37 293.82C440.13 294.67 436.41 299.04 435.53 300.05C403.58 336.32 347.54 361.61 299.74 366.21C229.11 373 152.38 343.53 111.22 284.66C108.57 280.87 107.73 279.3 112.04 276.45C120.82 270.66 132.25 266.22 141.3 260.61L144.53 260.24C144.81 262.47 143.74 264.6 143.57 266.72C141.91 288.33 162.25 297.24 179.52 302.7C184.37 309.37 186.85 314.02 194.41 318.03C214.45 328.65 246.81 327.02 265.11 313.38C267.24 311.8 272.97 305.55 274.86 305.45C276.42 305.37 278.9 307.18 280.53 307.73C293.06 311.96 306.5 316.82 319.48 319.15C331.6 321.32 343.45 323.69 355.85 324.03C378.12 324.66 405.42 322.88 415.02 299.21C415.62 297.72 418.97 287.67 418.97 286.85V278.7L420.11 278.02C425.02 281.96 430.95 284.83 435.92 288.61C437.31 289.67 440.88 292.02 440.37 293.82Z" fill="#362311" stroke="#362311" stroke-width="2" stroke-miterlimit="10"/>
<path d="M449.19 280.19L417.56 268.12C414.58 266.34 415.6 262.49 415.02 259.63C414.46 256.9 412.03 254.57 412.25 251.61L423.92 258.89C431.24 263.8 438.06 269.4 445.21 274.54C446.92 275.77 454.17 278.94 449.19 280.19Z" fill="#362311" stroke="#362311" stroke-width="2" stroke-miterlimit="10"/>
<path d="M379.62 30.32C384.1 28.23 382.2 32.76 381.3 35.35C378.09 44.57 371.05 57.03 366.6 66.21C360.05 79.73 352.64 92.86 347 106.79C348.25 107.09 349.45 107.73 350.64 106.84C370.94 89.74 393.31 75.32 414.61 59.53C415.9 58.57 422.53 52.14 423.77 53.33L365.72 125.74C367.76 127.82 370.07 125.12 371.96 124.31C395.49 114.18 419.56 104.86 443.43 95.52C446.41 94.36 449.03 92.07 452.55 92.42C452.79 93.74 451.92 94.27 451.12 95.06C444.29 101.8 433.02 108.24 425.05 114.08C412.8 123.07 400.76 132.38 388.41 141.24C386.79 142.4 376.7 147.84 378.19 149.95C380.59 150.34 383.08 149 385.69 148.58C404.05 145.66 423.45 144.51 441.68 141.24C447.01 140.29 449.02 139.63 454.63 139.22C460.69 138.78 466.41 136.09 472.7 137.01C472.85 138.31 471.23 138.74 470.3 139.16C442.64 151.57 413.52 160.78 385.89 173.24L384.9 174.65L479.91 185.19C480.85 185.7 479.82 186.27 479.29 186.5C477.82 187.16 474.51 187.87 472.81 188.19C449.04 192.67 424.05 194.1 400.07 197.96C398.31 198.25 395.88 198.41 395.47 200.55C394.15 207.49 399.62 206.73 404.34 208.45C424.7 215.85 446.02 223.59 466.11 231.59C467.92 232.31 470.5 233.21 472.09 234.23C473.77 235.32 471.74 235.68 470.55 235.79C462.83 236.49 454.19 233.91 446.49 232.98C431.8 231.2 417.03 229.35 402.35 227.7C397.23 227.12 391.53 227.55 386.64 226.62C384.07 226.12 382.56 225.83 381.3 223.32C379.69 220.11 378.61 213.97 377.23 210.12C368.6 186.01 356.94 166.47 337.89 149.23C313.13 126.83 275.37 106.36 262.33 74.18C259.82 67.97 256.1 58.98 261.84 53.58C262.89 53.36 262.45 54.02 262.68 54.63C265.93 63.49 267.98 74.67 271.58 83.16C271.94 84.02 272.39 84.87 273.11 85.49H274.56C275.38 85.05 275.72 83.36 275.86 82.46C276.54 78.25 276.42 73.7 277.1 69.31C278.83 58.17 282.43 47.23 284.12 36.05C284.91 33.97 287.68 33.09 289.66 32.47C299.54 29.36 295.65 35.89 296.12 42.32C296.95 53.67 297.73 64.96 299.02 76.35C299.66 82.08 299.3 90.03 304.71 79.64C312.91 63.9 318.12 44.34 327.9 29.46C329.39 27.19 333.72 21.6 336.48 25.49C338.62 28.51 334.86 36.62 334.18 40.04C333.46 43.59 333.59 47.24 332.94 50.8C330.69 63.31 325.68 77.94 325.05 90.39C325.01 91.05 325.05 91.8 325.53 92.3C327.43 94.31 330.31 88.76 331.39 87.6C346.28 71.61 358.33 52.83 372.92 36.57C374.35 34.97 377.86 31.15 379.62 30.32Z" fill="#362311" stroke="#362311" stroke-width="2" stroke-miterlimit="10"/>
<path d="M331.34 7.60004C345.36 8.69004 357.65 16.86 370.99 20.5C370.81 21.37 370.04 21.38 369.33 21.47C364.55 22.01 359.45 19.91 354.77 19.19C328.96 15.24 303.19 21.54 279.23 30.68C238.62 46.17 251.39 78.21 274.3 103.45C304.31 136.51 348.37 156.14 367.08 198.69C370.38 206.2 372.88 214.29 374.35 222.36C373.59 223.01 358.07 216.14 355.75 215.29C328.91 205.4 290.39 196.34 261.81 198.37C258.74 198.58 255.97 199.76 252.96 199.82C252.08 198.96 258.47 185.96 259.2 183.77C265.43 165.04 258.25 143.17 249.37 126.45C232.43 94.55 188.12 51.54 237.28 23.76C259.55 11.18 305.98 5.64004 331.34 7.60004Z" fill="#362311" stroke="#362311" stroke-width="2" stroke-miterlimit="10"/>
<path d="M325.52 92.3C327.42 94.31 330.3 88.75 331.38 87.6C346.27 71.61 358.33 52.83 372.91 36.56C374.34 34.97 377.85 31.14 379.61 30.32C384.08 28.22 382.18 32.76 381.28 35.35C378.07 44.57 371.03 57.03 366.58 66.22C360.03 79.73 352.61 92.86 346.98 106.8C348.23 107.1 349.43 107.73 350.62 106.84C370.92 89.74 393.3 75.32 414.59 59.53C415.88 58.57 422.51 52.15 423.75 53.33L365.7 125.74C367.74 127.82 370.05 125.12 371.94 124.31C395.48 114.18 419.54 104.86 443.41 95.53C446.39 94.37 449.01 92.07 452.53 92.42C452.77 93.74 451.9 94.27 451.1 95.06C444.27 101.8 433 108.24 425.03 114.08C412.78 123.07 400.73 132.38 388.39 141.23C386.77 142.4 376.68 147.83 378.16 149.95C380.57 150.34 383.06 148.99 385.66 148.58C404.02 145.65 423.42 144.51 441.65 141.24C446.98 140.29 448.99 139.63 454.6 139.22C460.66 138.78 466.38 136.09 472.67 137.01C472.82 138.3 471.2 138.74 470.26 139.16C442.6 151.57 413.48 160.78 385.85 173.24L384.86 174.65L479.87 185.2C480.81 185.71 479.78 186.27 479.25 186.51C477.78 187.16 474.47 187.87 472.78 188.19C449.01 192.68 424.01 194.1 400.04 197.97C398.27 198.25 395.85 198.41 395.44 200.56C394.11 207.5 399.59 206.74 404.31 208.45C424.67 215.85 445.99 223.59 466.07 231.59C467.88 232.31 470.47 233.21 472.05 234.23C473.73 235.32 471.7 235.68 470.51 235.79C462.79 236.49 454.15 233.91 446.45 232.98C431.76 231.21 416.99 229.35 402.32 227.7C397.19 227.12 391.5 227.55 386.61 226.62C384.04 226.13 382.53 225.83 381.27 223.33C379.66 220.11 378.58 213.98 377.2 210.13C368.56 186.01 356.91 166.47 337.85 149.24C313.09 126.84 275.33 106.37 262.29 74.19C259.78 67.98 256.06 58.99 261.8 53.59C262.85 53.37 262.41 54.03 262.64 54.64C265.89 63.49 267.94 74.68 271.54 83.17C271.9 84.03 272.35 84.88 273.07 85.5H274.52C275.34 85.06 275.68 83.38 275.83 82.47C276.5 78.26 276.39 73.71 277.07 69.32C278.8 58.18 282.4 47.24 284.09 36.06C284.87 33.98 287.65 33.1 289.62 32.48C299.5 29.36 295.62 35.89 296.09 42.33C296.92 53.68 297.7 64.97 298.98 76.36C299.63 82.08 299.26 90.04 304.67 79.65C312.87 63.91 318.08 44.35 327.86 29.47C329.35 27.21 333.68 21.62 336.44 25.5C338.58 28.52 334.83 36.63 334.14 40.05C333.45 43.47 333.55 47.25 332.91 50.81C330.65 63.32 325.64 77.95 325.01 90.4C324.98 91.06 325.01 91.81 325.49 92.31L325.52 92.3Z" fill="white" stroke="#362311" stroke-width="2" stroke-miterlimit="10"/>
<path d="M279.83 204.62C280.29 206.22 277.98 205.68 277.45 206.1C277.74 207.76 277.64 209.86 279.68 210.26C284.59 211.21 289.25 208.85 293.99 208.47C298.73 208.09 310.2 208.39 314.5 209.54C316.04 209.95 318.02 211.06 318.68 212.55L306.45 215.66C301.2 217.82 292.4 220.86 291.08 227.15C290.77 228.61 290.34 231.33 292.16 231.88C296.56 233.2 296.42 228.5 298.78 226.23C300.22 224.85 304.86 222.69 306.85 221.83C319.92 216.19 337.2 215.43 350.73 219.86C354.75 221.18 358.18 223.9 362.35 224.31C362.54 225.34 361.89 225.45 361.15 225.74C359.15 226.53 353.58 226.73 350.75 227.33C342.31 229.12 326.3 235.3 327.79 246.15C327.92 247.09 328.06 247.87 329.1 248.18C334.61 249.82 332.97 244.34 335.27 241.12C341.72 232.1 365.11 231.45 374.91 233.09C393.32 236.17 409.22 250.92 410.35 270.08C411.54 290.12 399.37 301.4 381.06 306.07C373.64 307.96 358.31 309.37 350.62 309.2C347.36 309.13 343.06 307.53 339.55 307.27C322.33 305.99 302.02 304.34 286.08 296.94C280.31 294.26 283.56 294.24 284.87 289.53C294.29 255.72 251.88 244.5 226.54 249.46C224.2 249.92 220.08 252.1 217.93 250.92C216.97 250.39 214.42 243.53 214.2 242.18C211.48 224.87 234.55 211.39 248.53 207.19C258.46 204.2 269.56 203.49 279.82 204.66L279.83 204.62Z" fill="white" stroke="#362311" stroke-width="2" stroke-miterlimit="10"/>
<path d="M370.98 20.49C370.8 21.36 370.04 21.38 369.32 21.46C364.54 22.01 359.45 19.9 354.77 19.19C328.95 15.24 303.19 21.54 279.22 30.68C238.61 46.17 251.38 78.21 274.29 103.45C304.29 136.51 348.35 156.14 367.07 198.69C370.37 206.19 372.87 214.28 374.33 222.35C373.58 223 358.06 216.14 355.74 215.28C328.9 205.39 290.37 196.33 261.8 198.36C258.73 198.58 255.96 199.75 252.94 199.82C252.07 198.96 258.46 185.96 259.18 183.77C265.41 165.04 258.22 143.17 249.35 126.45C232.41 94.55 188.1 51.54 237.26 23.76C259.53 11.18 305.96 5.62996 331.32 7.59996C345.34 8.68996 357.63 16.86 370.96 20.49H370.98Z" fill="white" stroke="#362311" stroke-width="2" stroke-miterlimit="10"/>
<path d="M418.96 278.7L420.11 278.02C425.02 281.95 430.94 284.83 435.92 288.61C437.31 289.67 440.88 292.02 440.37 293.82C440.13 294.67 436.41 299.04 435.53 300.04C403.58 336.32 347.54 361.61 299.74 366.2C229.11 372.99 152.39 343.52 111.22 284.65C108.57 280.87 107.73 279.29 112.05 276.44C120.83 270.65 132.25 266.21 141.3 260.6L144.53 260.22C144.81 262.45 143.74 264.58 143.58 266.7C141.92 288.31 162.25 297.22 179.53 302.68C184.38 309.34 186.85 313.99 194.42 318.01C214.45 328.63 246.82 327 265.12 313.36C267.25 311.77 272.98 305.53 274.87 305.43C276.43 305.35 278.91 307.16 280.53 307.71C293.07 311.94 306.5 316.8 319.48 319.13C331.6 321.3 343.45 323.67 355.86 324.01C378.13 324.63 405.42 322.85 415.02 299.18C415.62 297.69 418.97 287.65 418.97 286.83V278.68L418.96 278.7Z" fill="white" stroke="#362311" stroke-width="2" stroke-miterlimit="10"/>
<path d="M159.87 45.4301C159.83 45.8401 159.82 46.1301 160.24 46.3501C166.05 49.3201 178.65 60.7401 183.87 65.7901C193.51 75.1101 193.57 83.32 199.45 94.34C210.4 114.88 228.81 133.07 226.56 158.34C224.3 183.65 188.64 210.81 172.58 229.07C171 230.86 170.15 233.2 168.28 234.84C166.41 236.48 164.04 237.12 162.04 238.67C155.92 243.44 153.8 249.31 145.58 251.95C134.38 255.54 121.42 257.87 109.87 260.86C108.15 261.3 99.32 264.41 98.46 263.6C98.47 261.17 101.74 259.6 103.59 258.42C120.08 247.91 140.66 237.26 158.11 228.04C161.96 226.01 173.67 221.3 175.94 219.01C180.82 214.11 169.83 216.57 168.28 216.63C146.06 217.54 123.31 217.31 101.11 217.59C95.42 217.66 89.68 217.76 84.06 217.08L174.26 191.19L173.56 189.74C149.3 184.23 125.15 177.79 100.86 172.25C98.61 171.74 84.66 169.27 84.06 168.65C83.11 167.68 86.5 166.96 86.84 166.88C95.6 164.65 105.19 166.55 114.03 166.76C132.21 167.2 151.33 164.43 169.22 165.31C172.27 165.46 175.05 167.3 178.02 165.23V163.46L97.98 121.19L187.69 140.85L187.01 137.94C175.95 129.75 166.6 119.66 156.51 110.4C144.77 99.6301 132.29 89.5001 121.49 77.8001C122.16 76.8401 122.15 77.3001 122.8 77.4301C126.27 78.1101 132.43 82.7201 135.86 84.5301C154.13 94.1501 172.82 102.94 190.89 112.97C193.62 114.48 196.46 116.84 199.18 118.11C200.16 118.57 201.88 119.62 202.82 118.86C203.39 118.39 203.51 117.98 203.44 117.26C203.11 114 193.48 102.13 191.03 98.4401C181.36 83.9001 172.59 68.7701 162.64 54.4001C160.82 51.6701 162.52 47.6801 158.89 46.6401L159.84 45.4501L159.87 45.4301Z" fill="white" stroke="#362311" stroke-width="2" stroke-miterlimit="10"/>
<path d="M287.98 1.79001C288.15 2.61001 287.76 2.76001 287.19 3.16001C284.76 4.87001 273.48 5.09001 269.65 5.77001C234.45 12.01 199.13 32.28 211.57 73.61C224.46 116.45 272.19 143.32 248.09 194.25C246.26 198.11 244.79 201.97 240.81 203.75C230.46 208.39 221.89 212.99 214.33 221.88C212.96 223.5 210.44 228.07 209.28 228.82C206.49 230.62 201.7 228.79 198.5 228.6C192.02 228.22 187.29 230.66 181 230.51C180.51 230.06 183.15 226.74 183.63 226.19C187.98 221.21 194.46 216.13 199.24 211.1C222.32 186.87 242.14 161.72 227.14 126.61C222.32 115.32 214.21 107.7 208.26 97.05C194.62 72.61 184.21 42.1 210.03 21.46C223.9 10.38 246.46 4.84001 263.83 2.35001C272.02 1.18001 279.76 0.300012 287.98 1.79001Z" fill="white" stroke="#362311" stroke-width="2" stroke-miterlimit="10"/>
<path d="M199.69 268.87C203.4 289.68 234.25 287.84 249.7 283.6C255.62 281.97 264.84 278.92 261.19 270.95C256.71 261.15 231.45 257.49 222.45 260.69C217.56 262.43 212.5 271.67 218.87 273.91C220.59 274.52 229.51 276.51 231.13 276.56C234.18 276.66 241.51 274.9 240.5 270.62C237.36 268.04 233.1 269.9 229.68 269.86C228.37 269.85 223.59 269.25 224.19 267.23C229.5 263.84 238.16 265.77 244.03 267.46C246.81 268.26 257.88 271.47 253.91 275.82C252.34 277.54 250.77 276.72 248.92 277.06C237.89 279.1 218.66 283.71 209.5 274.62C206.12 271.26 205.8 268.26 208.6 264.57C214.73 256.51 235.95 253.75 245.52 254.44C260.15 255.5 281.65 265.46 280.23 282.93C277.7 313.89 208.81 322.29 194.32 294.1C189.77 285.25 191.59 274.81 199.68 268.84L199.69 268.87Z" fill="white" stroke="#362311" stroke-width="2" stroke-miterlimit="10"/>
<path d="M174.7 243.41C174.97 242.08 174.27 240.47 175.23 239.38C176.27 238.19 186.81 236.05 187.66 236.8C188.08 239.62 190.18 242.1 193.21 242.04C194.44 242.01 198.55 240.84 199.27 239.89C200.63 238.11 197.45 236.71 198.74 236.01C210.34 234.18 207.23 239.56 208.95 246.93C209.39 248.81 211.75 252.33 211 253.99C210.38 255.34 205.31 257.08 203.59 258.12C197.41 261.84 189.36 270.4 187.38 277.4C186.76 279.59 186.13 289.95 184.53 290.41C183.85 290.6 172.86 285.73 171.4 284.95C158.1 277.8 148.62 262.83 159.43 248.99C164.45 242.56 167.36 244.44 174.72 243.42L174.7 243.41Z" fill="white" stroke="#362311" stroke-width="2" stroke-miterlimit="10"/>
<path d="M412.25 251.61L423.91 258.89C431.23 263.8 438.05 269.4 445.2 274.54C446.91 275.77 454.16 278.95 449.18 280.2L417.55 268.12C414.57 266.34 415.59 262.49 415.01 259.63C414.45 256.9 412.03 254.57 412.25 251.61Z" fill="white" stroke="#362311" stroke-width="2" stroke-miterlimit="10"/>
<path d="M208.24 21.46C222.11 10.38 244.67 4.83998 262.04 2.34998C270.23 1.16998 277.97 0.299984 286.19 1.78998C286.36 2.60998 285.97 2.75998 285.4 3.15998C282.98 4.86998 271.69 5.08998 267.86 5.76998C232.66 12.01 197.34 32.27 209.78 73.6C222.67 116.44 270.39 143.31 246.3 194.24C244.48 198.1 243 201.96 239.02 203.74C228.67 208.38 220.1 212.98 212.54 221.87C211.16 223.49 208.65 228.07 207.49 228.81C204.69 230.61 199.91 228.79 196.71 228.6C190.23 228.22 185.49 230.66 179.2 230.51C178.71 230.06 181.36 226.73 181.83 226.19C186.19 221.21 192.66 216.13 197.44 211.1C220.53 186.87 240.35 161.73 225.34 126.62C220.52 115.33 212.41 107.7 206.47 97.05C192.82 72.61 182.41 42.11 208.24 21.46Z" fill="#362311" stroke="#362311" stroke-width="2" stroke-miterlimit="10"/>
<path d="M277.89 210.26C282.8 211.21 287.46 208.85 292.2 208.46C296.78 208.09 308.41 208.39 312.71 209.53C314.25 209.94 316.23 211.05 316.89 212.53L304.66 215.64C299.41 217.8 290.61 220.84 289.29 227.13C288.98 228.59 288.54 231.31 290.37 231.85C294.77 233.17 294.63 228.47 296.99 226.2C298.43 224.82 303.07 222.66 305.06 221.8C318.14 216.16 335.41 215.4 348.94 219.83C352.96 221.14 356.4 223.86 360.56 224.28C360.75 225.31 360.09 225.42 359.36 225.71C357.35 226.5 351.79 226.7 348.96 227.3C340.52 229.1 324.51 235.28 326 246.12C326.13 247.06 326.27 247.84 327.31 248.15C332.82 249.79 331.18 244.32 333.49 241.09C339.94 232.07 363.33 231.42 373.12 233.06C391.53 236.14 407.43 250.89 408.56 270.05C409.75 290.09 397.58 301.37 379.28 306.04C371.86 307.93 356.53 309.34 348.83 309.17C345.57 309.09 341.28 307.5 337.77 307.24C320.55 305.96 300.24 304.3 284.29 296.91C278.52 294.23 281.77 294.2 283.08 289.5C292.51 255.69 250.1 244.47 224.76 249.43C222.41 249.89 218.29 252.06 216.15 250.88C215.18 250.35 212.63 243.49 212.42 242.14C209.7 224.84 232.77 211.36 246.74 207.15C256.67 204.16 267.77 203.45 278.04 204.62C278.5 206.22 276.19 205.68 275.66 206.1C275.95 207.76 275.85 209.86 277.89 210.26Z" fill="#362311" stroke="#362311" stroke-width="2" stroke-miterlimit="10"/>
<path d="M173.44 239.38C174.48 238.19 185.01 236.05 185.86 236.8C186.28 239.62 188.38 242.11 191.41 242.04C192.64 242.01 196.75 240.84 197.47 239.89C198.83 238.11 195.65 236.72 196.94 236.01C208.53 234.18 205.43 239.56 207.14 246.94C207.58 248.82 209.95 252.34 209.19 254C208.58 255.34 203.5 257.09 201.79 258.12C195.61 261.84 187.56 270.4 185.58 277.4C184.95 279.6 184.33 289.95 182.72 290.41C182.04 290.6 171.05 285.73 169.59 284.95C156.3 277.8 146.81 262.83 157.62 248.98C162.64 242.56 165.55 244.43 172.91 243.41C173.19 242.08 172.48 240.47 173.44 239.38Z" fill="#362311" stroke="#362311" stroke-width="2" stroke-miterlimit="10"/>
<path d="M197.91 268.87C201.62 289.68 232.47 287.84 247.91 283.6C253.84 281.97 263.05 278.92 259.41 270.95C254.93 261.15 229.66 257.49 220.67 260.69C215.78 262.43 210.72 271.67 217.1 273.91C218.82 274.52 227.73 276.52 229.35 276.57C232.41 276.67 239.73 274.91 238.72 270.63C235.58 268.05 231.32 269.91 227.9 269.87C226.59 269.86 221.81 269.26 222.41 267.24C227.72 263.86 236.39 265.78 242.25 267.47C245.04 268.27 256.11 271.48 252.14 275.84C250.56 277.56 249 276.74 247.15 277.08C236.11 279.12 216.89 283.73 207.73 274.64C204.35 271.28 204.02 268.28 206.83 264.6C212.96 256.54 234.18 253.78 243.75 254.47C258.38 255.53 279.88 265.49 278.46 282.96C275.93 313.92 207.03 322.32 192.55 294.13C188 285.29 189.81 274.85 197.91 268.87Z" fill="#362311" stroke="#362311" stroke-width="2" stroke-miterlimit="10"/>
<path d="M96.68 263.6C96.68 261.17 99.96 259.59 101.81 258.42C118.3 247.91 138.87 237.25 156.33 228.03C160.18 226 171.88 221.29 174.16 219C179.04 214.11 168.05 216.56 166.5 216.63C144.29 217.53 121.53 217.3 99.34 217.59C93.65 217.66 87.91 217.75 82.28 217.08L172.48 191.19L171.78 189.74C147.51 184.23 123.37 177.78 99.08 172.25C96.83 171.73 82.88 169.26 82.28 168.65C81.33 167.67 84.72 166.96 85.06 166.88C93.83 164.64 103.41 166.54 112.25 166.76C130.43 167.2 149.55 164.42 167.44 165.31C170.49 165.46 173.27 167.3 176.24 165.22V163.45L96.2 121.18L185.91 140.84L185.24 137.93C174.18 129.74 164.83 119.65 154.74 110.39C142.99 99.6201 130.51 89.4901 119.71 77.7901C120.39 76.8301 120.37 77.2901 121.02 77.4201C124.49 78.1001 130.65 82.7001 134.09 84.5101C152.36 94.1401 171.05 102.93 189.12 112.95C191.85 114.47 194.68 116.82 197.41 118.09C198.4 118.55 200.11 119.6 201.05 118.84C201.63 118.37 201.75 117.96 201.67 117.23C201.34 113.98 191.71 102.1 189.27 98.4201C179.6 83.8801 170.82 68.7401 160.88 54.3801C159.06 51.6501 160.76 47.6601 157.13 46.6201L158.08 45.4301C158.04 45.8501 158.03 46.1401 158.45 46.3501C164.26 49.3301 176.86 60.7501 182.09 65.8001C191.72 75.1101 191.79 83.33 197.66 94.34C208.61 114.88 227.02 133.07 224.77 158.34C222.52 183.65 186.85 210.81 170.8 229.07C169.22 230.86 168.37 233.2 166.5 234.84C164.67 236.44 162.26 237.12 160.26 238.67C154.14 243.44 152.01 249.32 143.8 251.95C132.6 255.54 119.63 257.87 108.09 260.86C106.37 261.3 97.53 264.41 96.68 263.6Z" fill="#362311" stroke="#362311" stroke-width="2" stroke-miterlimit="10"/>
<path d="M438.58 293.82C438.34 294.67 434.62 299.04 433.74 300.05C401.79 336.32 345.75 361.61 297.95 366.21C227.32 373 150.59 343.53 109.43 284.66C106.78 280.87 105.94 279.3 110.25 276.45C119.03 270.66 130.46 266.22 139.51 260.61L142.74 260.24C143.02 262.47 141.95 264.6 141.78 266.72C140.12 288.33 160.46 297.24 177.73 302.7C182.58 309.37 185.06 314.02 192.62 318.03C212.66 328.65 245.02 327.02 263.32 313.38C265.45 311.8 271.18 305.55 273.07 305.45C274.63 305.37 277.11 307.18 278.74 307.73C291.27 311.96 304.71 316.82 317.69 319.15C329.81 321.32 341.66 323.69 354.06 324.03C376.33 324.66 403.63 322.88 413.23 299.21C413.83 297.72 417.18 287.67 417.18 286.85V278.7L418.32 278.02C423.23 281.96 429.16 284.83 434.13 288.61C435.52 289.67 439.09 292.02 438.58 293.82Z" fill="#362311" stroke="#362311" stroke-width="2" stroke-miterlimit="10"/>
<path d="M447.4 280.19L415.77 268.12C412.79 266.34 413.81 262.49 413.23 259.63C412.67 256.9 410.24 254.57 410.46 251.61L422.13 258.89C429.45 263.8 436.27 269.4 443.42 274.54C445.13 275.77 452.38 278.94 447.4 280.19Z" fill="#362311" stroke="#362311" stroke-width="2" stroke-miterlimit="10"/>
<path d="M377.83 30.32C382.31 28.23 380.41 32.76 379.51 35.35C376.3 44.57 369.26 57.03 364.81 66.21C358.26 79.73 350.85 92.86 345.21 106.79C346.46 107.09 347.66 107.73 348.85 106.84C369.15 89.74 391.52 75.32 412.82 59.53C414.11 58.57 420.74 52.14 421.98 53.33L363.93 125.74C365.97 127.82 368.28 125.12 370.17 124.31C393.7 114.18 417.77 104.86 441.64 95.52C444.62 94.36 447.24 92.07 450.76 92.42C451 93.74 450.13 94.27 449.33 95.06C442.5 101.8 431.23 108.24 423.26 114.08C411.01 123.07 398.97 132.38 386.62 141.24C385 142.4 374.91 147.84 376.4 149.95C378.8 150.34 381.29 149 383.9 148.58C402.26 145.66 421.66 144.51 439.89 141.24C445.22 140.29 447.23 139.63 452.84 139.22C458.9 138.78 464.62 136.09 470.91 137.01C471.06 138.31 469.44 138.74 468.51 139.16C440.85 151.57 411.73 160.78 384.1 173.24L383.11 174.65L478.12 185.19C479.06 185.7 478.03 186.27 477.5 186.5C476.03 187.16 472.72 187.87 471.02 188.19C447.25 192.67 422.26 194.1 398.28 197.96C396.52 198.25 394.09 198.41 393.68 200.55C392.36 207.49 397.83 206.73 402.55 208.45C422.91 215.85 444.23 223.59 464.32 231.59C466.13 232.31 468.71 233.21 470.3 234.23C471.98 235.32 469.95 235.68 468.76 235.79C461.04 236.49 452.4 233.91 444.7 232.98C430.01 231.2 415.24 229.35 400.56 227.7C395.44 227.12 389.74 227.55 384.85 226.62C382.28 226.12 380.77 225.83 379.51 223.32C377.9 220.11 376.82 213.97 375.44 210.12C366.81 186.01 355.15 166.47 336.1 149.23C311.34 126.83 273.58 106.36 260.54 74.18C258.03 67.97 254.31 58.98 260.05 53.58C261.1 53.36 260.66 54.02 260.89 54.63C264.14 63.49 266.19 74.67 269.79 83.16C270.15 84.02 270.6 84.87 271.32 85.49H272.77C273.59 85.05 273.93 83.36 274.07 82.46C274.75 78.25 274.63 73.7 275.31 69.31C277.04 58.17 280.64 47.23 282.33 36.05C283.12 33.97 285.89 33.09 287.87 32.47C297.75 29.36 293.86 35.89 294.33 42.32C295.16 53.67 295.94 64.96 297.23 76.35C297.87 82.08 297.51 90.03 302.92 79.64C311.12 63.9 316.33 44.34 326.11 29.46C327.6 27.19 331.93 21.6 334.69 25.49C336.83 28.51 333.07 36.62 332.39 40.04C331.67 43.59 331.8 47.24 331.15 50.8C328.9 63.31 323.89 77.94 323.26 90.39C323.22 91.05 323.26 91.8 323.74 92.3C325.64 94.31 328.52 88.76 329.6 87.6C344.49 71.61 356.54 52.83 371.13 36.57C372.56 34.97 376.07 31.15 377.83 30.32Z" fill="#362311" stroke="#362311" stroke-width="2" stroke-miterlimit="10"/>
<path d="M329.55 7.60004C343.57 8.69004 355.86 16.86 369.2 20.5C369.02 21.37 368.25 21.38 367.54 21.47C362.76 22.01 357.66 19.91 352.98 19.19C327.17 15.24 301.4 21.54 277.44 30.68C236.83 46.17 249.6 78.21 272.51 103.45C302.52 136.51 346.58 156.14 365.29 198.69C368.59 206.2 371.09 214.29 372.56 222.36C371.8 223.01 356.28 216.14 353.96 215.29C327.12 205.4 288.6 196.34 260.02 198.37C256.95 198.58 254.18 199.76 251.17 199.82C250.29 198.96 256.68 185.96 257.41 183.77C263.64 165.04 256.46 143.17 247.58 126.45C230.64 94.55 186.33 51.54 235.49 23.76C257.76 11.18 304.19 5.64004 329.55 7.60004Z" fill="#362311" stroke="#362311" stroke-width="2" stroke-miterlimit="10"/>
<path d="M491.948 253C493.364 254.661 494.75 256.231 496.107 257.71C497.493 259.16 498.563 260.262 499.317 261.017C499.98 261.681 500.628 262.3 501.261 262.874C501.894 263.448 502.437 263.931 502.889 264.324L501.847 265.364C498.832 263.309 496.208 261.919 493.977 261.193C491.775 260.437 489.859 260.269 488.23 260.69C486.57 261.081 485.046 261.969 483.657 263.356L482.615 264.396L508.432 290.26C509.637 291.468 510.662 292.253 511.507 292.616C512.381 292.949 513.271 292.874 514.177 292.392C515.052 291.88 516.17 290.976 517.528 289.68L518.433 290.586C517.466 291.49 516.183 292.711 514.583 294.248C513.012 295.755 511.382 297.352 509.691 299.04C508.03 300.698 506.475 302.281 505.025 303.788C503.576 305.295 502.413 306.516 501.537 307.45L500.633 306.544C501.962 305.158 502.883 304.027 503.397 303.153C503.88 302.248 503.941 301.373 503.58 300.528C503.219 299.683 502.435 298.657 501.229 297.449L475.413 271.585L474.416 272.579C473.027 273.966 472.136 275.489 471.742 277.148C471.318 278.776 471.482 280.692 472.234 282.895C472.957 285.068 474.327 287.709 476.345 290.819L475.304 291.859C474.942 291.376 474.46 290.832 473.857 290.228C473.284 289.594 472.666 288.945 472.003 288.281C471.25 287.526 470.134 286.469 468.657 285.11C467.21 283.721 465.658 282.316 464 280.897C465.419 279.54 466.959 278.063 468.62 276.466C470.311 274.838 471.987 273.196 473.648 271.538C475.309 269.88 476.803 268.388 478.132 267.062C479.491 265.705 480.986 264.213 482.616 262.586C484.277 260.928 485.923 259.255 487.554 257.567C489.184 255.879 490.649 254.356 491.948 253Z" fill="#382104"/>
<path d="M459.676 284.887C460.854 286.359 462.019 287.754 463.171 289.074C464.353 290.364 465.269 291.348 465.92 292.024C466.511 292.639 467.089 293.209 467.652 293.732C468.215 294.256 468.689 294.688 469.075 295.027L468.014 296.048C465.548 294.099 463.37 292.789 461.482 292.119C459.564 291.418 457.831 291.309 456.283 291.792C454.736 292.215 453.271 293.092 451.887 294.423L449.996 296.242C449.104 297.1 448.502 297.827 448.188 298.425C447.875 299.022 447.863 299.625 448.153 300.235C448.443 300.844 449.047 301.625 449.963 302.578L473.035 326.562C473.952 327.515 474.71 328.149 475.307 328.462C475.905 328.775 476.508 328.787 477.117 328.497C477.726 328.207 478.476 327.633 479.368 326.776L481.628 324.601C483.012 323.27 483.946 321.81 484.429 320.22C484.914 318.57 484.83 316.667 484.178 314.512C483.556 312.327 482.262 309.813 480.295 306.968L481.356 305.948C482.21 307.02 483.407 308.356 484.945 309.955C485.625 310.662 486.602 311.647 487.875 312.909C489.148 314.171 490.527 315.419 492.012 316.655C490.384 318.102 488.587 319.772 486.619 321.666C484.621 323.528 482.854 325.199 481.316 326.677C480.548 327.417 479.564 328.364 478.365 329.517C477.165 330.671 475.889 331.928 474.535 333.29C473.151 334.621 471.767 335.983 470.382 337.374C468.967 338.735 467.644 340.037 466.413 341.28L465.526 340.358C466.451 339.35 467.07 338.517 467.385 337.859C467.699 337.201 467.667 336.522 467.289 335.82C466.941 335.089 466.234 334.17 465.169 333.063L443.162 310.186C442.068 309.049 441.177 308.307 440.49 307.962C439.803 307.556 439.11 307.513 438.41 307.831C437.711 308.089 436.87 308.661 435.887 309.547L435 308.625C436.29 307.443 437.657 306.187 439.101 304.857C440.516 303.496 441.93 302.166 443.343 300.866C444.727 299.534 446.018 298.292 447.217 297.138C448.417 295.985 449.4 295.038 450.169 294.299C451.584 292.938 453.183 291.4 454.966 289.684C456.751 287.909 458.321 286.309 459.676 284.887ZM467.655 307.583C467.655 307.583 467.803 307.737 468.099 308.044C468.394 308.352 468.542 308.506 468.542 308.506L460.471 316.27C460.471 316.27 460.323 316.116 460.027 315.809C459.731 315.501 459.583 315.348 459.583 315.348L467.655 307.583ZM463.136 300.208C464.699 302.079 465.924 303.476 466.811 304.398C467.73 305.291 468.558 306.122 469.298 306.891C470.037 307.659 470.866 308.49 471.784 309.383C472.702 310.276 474.066 311.54 475.875 313.174L474.814 314.195C473.625 313.266 472.372 312.548 471.054 312.04C469.767 311.502 468.473 311.326 467.171 311.512C465.841 311.667 464.56 312.336 463.33 313.519L462.443 312.597C463.365 311.709 463.972 310.771 464.263 309.781C464.524 308.76 464.559 307.749 464.367 306.75C464.176 305.69 463.864 304.688 463.429 303.744C462.995 302.8 462.544 301.962 462.075 301.229L463.136 300.208Z" fill="#382104"/>
<path d="M429.561 313L430.351 314.007C429.303 314.883 428.586 315.663 428.199 316.345C427.82 316.968 427.783 317.647 428.089 318.383C428.369 319.086 428.996 320.058 429.971 321.3L449.561 346.278C450.509 347.487 451.304 348.327 451.945 348.8C452.621 349.246 453.306 349.36 454.001 349.14C454.696 348.92 455.607 348.422 456.734 347.647L457.524 348.654C456.565 349.298 455.397 350.159 454.021 351.239C452.618 352.285 451.212 353.361 449.802 354.467C448.157 355.757 446.642 356.972 445.259 358.111C443.882 359.191 442.784 360.107 441.963 360.858L441.174 359.851C442.195 358.942 442.896 358.175 443.275 357.553C443.654 356.93 443.691 356.25 443.384 355.514C443.112 354.752 442.502 353.767 441.554 352.558L421.963 327.58C420.989 326.338 420.178 325.51 419.528 325.098C418.887 324.625 418.201 324.512 417.473 324.758C416.751 324.944 415.857 325.429 414.79 326.212L414 325.204C414.899 324.553 416.05 323.705 417.453 322.659C418.889 321.586 420.43 320.405 422.075 319.115C423.485 318.009 424.865 316.9 426.215 315.786C427.566 314.673 428.681 313.744 429.561 313Z" fill="#382104"/>
<path d="M374 352.606C374.933 352.087 376.175 351.378 377.727 350.481C379.315 349.562 380.874 348.635 382.403 347.702C384.152 346.635 385.834 345.583 387.451 344.546C389.067 343.51 390.222 342.78 390.914 342.358C394.3 340.291 397.338 338.961 400.027 338.37C402.729 337.721 405.06 337.772 407.02 338.526C409.015 339.257 410.625 340.624 411.847 342.627C412.603 343.866 413.115 345.278 413.383 346.864C413.629 348.413 413.466 350.112 412.895 351.96C412.338 353.75 411.203 355.617 409.491 357.562C407.756 359.47 405.287 361.403 402.082 363.359L396.837 366.559L396.17 365.467L400.868 362.599C403.017 361.288 404.393 359.898 404.997 358.43C405.615 356.903 405.713 355.344 405.291 353.752C404.883 352.101 404.168 350.438 403.146 348.763C401.39 345.886 399.524 343.976 397.548 343.032C395.55 342.052 393.313 342.318 390.837 343.829C389.416 344.696 388.677 345.573 388.618 346.458C388.595 347.322 389.161 348.701 390.317 350.595L406.855 377.69C407.655 379.001 408.346 379.929 408.929 380.474C409.547 380.996 410.215 381.188 410.931 381.051C411.647 380.914 412.61 380.526 413.82 379.888L414.486 380.98C413.459 381.508 412.198 382.227 410.705 383.138C409.19 384.013 407.667 384.918 406.137 385.851C404.389 386.918 402.743 387.948 401.2 388.94C399.67 389.874 398.472 390.655 397.606 391.283L396.939 390.191C398.06 389.406 398.845 388.727 399.295 388.153C399.744 387.579 399.86 386.908 399.642 386.142C399.46 385.353 398.969 384.303 398.169 382.992L381.631 355.896C380.809 354.548 380.099 353.632 379.503 353.146C378.921 352.602 378.254 352.409 377.501 352.568C376.763 352.669 375.818 353.046 374.667 353.699L374 352.606ZM396.161 365.697C397.749 364.778 399.141 364.028 400.337 363.449C401.569 362.847 402.656 362.334 403.596 361.909C404.515 361.449 405.331 361.025 406.045 360.639C409.537 358.908 412.411 358.129 414.666 358.302C416.958 358.453 419.029 359.513 420.881 361.482L425.571 366.342C426.788 367.599 427.757 368.407 428.476 368.768C429.196 369.128 429.902 369.097 430.594 368.675C431.045 368.349 431.361 368.007 431.541 367.647C431.736 367.228 431.893 366.708 432.012 366.085L433.177 366.273C432.883 368.003 432.316 369.448 431.476 370.611C430.658 371.81 429.448 372.898 427.846 373.876C425.879 375.077 424.003 375.647 422.217 375.587C420.431 375.528 418.649 374.491 416.87 372.478L412.552 367.615C411.364 366.241 410.243 365.101 409.19 364.194C408.114 363.251 407.048 362.651 405.993 362.396C404.951 362.082 403.866 362.269 402.737 362.959L396.837 366.559L396.161 365.697Z" fill="#382104"/>
<path d="M366.566 356.395C366.983 358.233 367.421 359.998 367.881 361.688C368.38 363.365 368.775 364.65 369.065 365.542C369.329 366.354 369.599 367.118 369.877 367.836C370.155 368.553 370.393 369.149 370.592 369.622L369.192 370.077C367.824 367.246 366.437 365.117 365.032 363.69C363.613 362.222 362.101 361.367 360.498 361.125C358.921 360.829 357.22 360.978 355.394 361.571L352.898 362.382C351.721 362.764 350.862 363.155 350.319 363.556C349.776 363.956 349.502 364.494 349.497 365.168C349.492 365.843 349.693 366.809 350.102 368.067L360.381 399.72C360.79 400.978 361.194 401.878 361.595 402.421C361.996 402.964 362.533 403.238 363.208 403.243C363.882 403.248 364.808 403.06 365.985 402.678L368.968 401.709C370.794 401.116 372.271 400.21 373.401 398.991C374.558 397.718 375.313 395.97 375.668 393.746C376.063 391.509 375.997 388.682 375.47 385.264L376.87 384.81C377.17 386.148 377.663 387.872 378.348 389.982C378.651 390.916 379.1 392.228 379.694 393.919C380.288 395.61 380.983 397.336 381.779 399.096C379.683 399.687 377.336 400.404 374.739 401.248C372.129 402.051 369.809 402.782 367.78 403.44C366.766 403.77 365.467 404.192 363.885 404.706C362.302 405.22 360.604 405.793 358.791 406.427C356.965 407.02 355.125 407.64 353.272 408.287C351.405 408.893 349.647 409.487 347.996 410.068L347.601 408.85C348.873 408.347 349.794 407.869 350.364 407.414C350.934 406.96 351.202 406.335 351.168 405.538C351.174 404.729 350.94 403.594 350.466 402.133L340.661 371.941C340.173 370.439 339.695 369.383 339.228 368.773C338.788 368.108 338.183 367.766 337.414 367.747C336.673 367.673 335.666 367.821 334.395 368.189L334 366.971C335.677 366.472 337.455 365.939 339.335 365.373C341.202 364.767 343.055 364.188 344.894 363.635C346.72 363.042 348.425 362.489 350.007 361.975C351.59 361.461 352.888 361.039 353.903 360.709C355.77 360.103 357.88 359.418 360.233 358.654C362.615 357.835 364.725 357.083 366.566 356.395ZM363.831 380.297C363.831 380.297 363.896 380.5 364.028 380.905C364.16 381.311 364.226 381.514 364.226 381.514L353.574 384.974C353.574 384.974 353.508 384.771 353.376 384.365C353.244 383.959 353.178 383.756 353.178 383.756L363.831 380.297ZM362.986 371.689C363.575 374.054 364.067 375.846 364.463 377.063C364.899 378.268 365.281 379.377 365.611 380.392C365.94 381.406 366.323 382.515 366.759 383.72C367.195 384.924 367.87 386.656 368.783 388.917L367.383 389.371C366.719 388.017 365.905 386.823 364.942 385.79C364.019 384.744 362.931 384.021 361.68 383.62C360.415 383.178 358.971 383.221 357.348 383.748L356.952 382.531C358.17 382.135 359.125 381.556 359.819 380.792C360.5 379.988 360.973 379.094 361.237 378.111C361.528 377.074 361.684 376.037 361.706 374.998C361.727 373.959 361.688 373.008 361.586 372.143L362.986 371.689Z" fill="#382104"/>
<path d="M305 371.361C307.88 371.012 310.28 371.13 312.199 371.714C314.117 372.299 315.866 373.076 317.445 374.045C317.999 374.365 318.446 374.504 318.785 374.463C319.589 374.365 319.965 373.031 319.912 370.458L321.373 370.282C321.488 371.944 321.668 373.963 321.913 376.341C322.153 378.675 322.508 381.791 322.98 385.688L321.518 385.865C320.914 383.359 320.182 381.213 319.321 379.426C318.497 377.592 317.177 376.097 315.361 374.942C314.227 374.091 312.864 373.482 311.272 373.116C309.723 372.745 308.186 372.651 306.661 372.836C304.332 373.118 302.415 373.973 300.912 375.401C299.404 376.787 298.245 378.582 297.438 380.786C296.63 382.989 296.131 385.435 295.94 388.123C295.745 390.768 295.816 393.489 296.155 396.284C297.077 403.909 298.789 409.353 301.29 412.617C303.834 415.877 307.075 417.268 311.014 416.791C312.031 416.668 312.905 416.433 313.637 416.087C314.368 415.741 314.947 415.37 315.372 414.975C315.913 414.479 316.262 413.986 316.417 413.494C316.568 412.96 316.594 412.291 316.497 411.486L315.743 405.26C315.507 403.311 315.163 401.891 314.712 401.001C314.297 400.062 313.604 399.48 312.631 399.254C311.658 399.028 310.279 399.001 308.495 399.174L308.342 397.904C309.236 397.838 310.3 397.752 311.534 397.646C312.804 397.492 314.12 397.355 315.481 397.233C316.836 397.069 318.086 396.918 319.229 396.779C321.008 396.564 322.637 396.345 324.114 396.123C325.591 395.902 326.793 395.713 327.72 395.558L327.874 396.829C327.074 396.969 326.478 397.191 326.085 397.497C325.735 397.797 325.521 398.338 325.444 399.121C325.409 399.899 325.486 401.072 325.676 402.639L327.199 415.219L325.928 415.373C325.798 414.658 325.534 413.895 325.135 413.084C324.779 412.267 324.282 411.898 323.647 411.974C323.351 412.01 322.958 412.144 322.471 412.375C322.02 412.558 321.322 413.008 320.378 413.724C318.918 414.803 317.358 415.766 315.699 416.611C314.034 417.414 312.248 417.931 310.342 418.162C305.429 418.757 301.167 418.348 297.558 416.937C293.949 415.526 291.071 413.231 288.925 410.053C286.815 406.827 285.471 402.821 284.891 398.034C284.307 393.205 284.774 388.894 286.291 385.1C287.852 381.301 290.227 378.199 293.417 375.793C296.649 373.381 300.51 371.904 305 371.361Z" fill="#382104"/>
<path d="M262.019 372.66L271.145 414.657C271.495 416.267 271.983 417.424 272.606 418.127C273.278 418.794 273.906 419.196 274.49 419.331L274.29 420.595C273.039 420.312 271.55 420.034 269.822 419.761C268.143 419.453 266.439 419.163 264.711 418.891C262.772 418.586 260.936 418.318 259.201 418.088C257.473 417.815 256.096 417.642 255.072 417.566L255.271 416.302C257.434 416.556 258.839 416.411 259.486 415.865C260.183 415.284 260.279 413.852 259.775 411.569L253.66 380.479L255.057 379.014L241.502 402.535C240.21 404.707 239.342 406.514 238.899 407.956C238.498 409.404 238.424 410.559 238.677 411.419C238.972 412.287 239.536 412.958 240.368 413.435C241.248 413.876 242.318 414.218 243.575 414.459L243.376 415.723C241.998 415.42 240.677 415.169 239.413 414.969C238.155 414.728 236.873 414.504 235.567 414.298C234.639 414.152 233.751 414.034 232.901 413.943C232.101 413.817 231.378 413.746 230.732 413.731L230.931 412.466C231.843 412.437 232.839 412.011 233.919 411.188C234.999 410.365 236.164 408.864 237.414 406.685L257.657 371.973C258.324 372.121 259.037 372.255 259.796 372.375C260.597 372.501 261.338 372.596 262.019 372.66ZM262.24 400.037L262.041 401.301L243.201 398.332L244.033 397.167L262.24 400.037Z" fill="#382104"/>
<path d="M196.872 356C197.896 356.429 199.24 356.977 200.904 357.644C202.567 358.312 204.238 358.96 205.917 359.587C207.835 360.305 209.701 360.98 211.514 361.612C213.327 362.245 214.614 362.703 215.373 362.987C220.328 364.84 223.696 367.102 225.476 369.772C227.296 372.457 227.691 375.178 226.66 377.936C226.137 379.335 225.186 380.596 223.809 381.721C222.432 382.846 220.655 383.639 218.478 384.101C216.301 384.562 213.717 384.529 210.725 384.003L210.68 384.122C214.332 385.807 217.055 387.6 218.85 389.501C220.644 391.402 221.737 393.291 222.128 395.168C222.519 397.046 222.409 398.804 221.796 400.442C220.854 402.96 219.403 404.831 217.441 406.056C215.48 407.282 213.088 407.891 210.267 407.883C207.46 407.836 204.339 407.169 200.902 405.884C199.943 405.525 198.571 404.99 196.788 404.277C195.02 403.525 192.857 402.67 190.299 401.714C188.54 401.056 186.815 400.433 185.121 399.846C183.443 399.218 182.069 398.75 181 398.441L181.448 397.242C182.757 397.641 183.776 397.839 184.505 397.839C185.234 397.838 185.833 397.515 186.302 396.871C186.811 396.241 187.334 395.207 187.872 393.768L198.992 364.036C199.545 362.557 199.828 361.433 199.843 360.664C199.912 359.87 199.652 359.226 199.062 358.732C198.527 358.213 197.648 357.702 196.424 357.199L196.872 356ZM214.168 363.835C212.609 363.252 211.463 363.21 210.729 363.71C210.036 364.225 209.3 365.522 208.523 367.6L197.404 397.333C196.88 398.732 196.584 399.828 196.515 400.622C196.486 401.431 196.706 402.06 197.176 402.509C197.686 402.973 198.52 403.422 199.679 403.855C202.556 404.931 204.991 404.817 206.982 403.512C209.028 402.181 210.679 399.838 211.935 396.481C213.085 393.404 213.195 390.734 212.265 388.473C211.374 386.227 209.15 384.438 205.593 383.108L200.498 381.203C200.498 381.203 200.558 381.043 200.677 380.723C200.812 380.364 200.879 380.184 200.879 380.184L206.034 382.112C207.912 382.814 209.516 382.913 210.843 382.407C212.186 381.861 213.334 380.924 214.287 379.595C215.254 378.226 216.059 376.682 216.702 374.964C217.808 372.006 218.178 369.616 217.812 367.794C217.46 365.932 216.246 364.612 214.168 363.835Z" fill="#382104"/>
<path d="M167.849 344.786C175.379 348.521 180.126 353.018 182.089 358.278C184.072 363.499 183.48 369.302 180.314 375.686C178.248 379.852 175.539 383.057 172.189 385.3C168.857 387.506 165.044 388.615 160.751 388.629C156.496 388.662 151.979 387.494 147.201 385.125C146.59 384.821 145.796 384.404 144.821 383.873C143.847 383.342 142.824 382.811 141.754 382.28C140.702 381.711 139.756 381.218 138.915 380.801C137.233 379.967 135.561 379.162 133.899 378.385C132.293 377.589 130.994 376.992 130 376.594L130.569 375.448C131.83 375.978 132.823 376.28 133.548 376.354C134.274 376.428 134.903 376.168 135.435 375.575C136.005 375.001 136.632 374.025 137.314 372.649L151.418 344.21C152.119 342.796 152.516 341.707 152.609 340.943C152.759 340.161 152.566 339.493 152.03 338.942C151.551 338.371 150.729 337.773 149.563 337.147L150.131 336C151.068 336.512 152.32 337.204 153.888 338.077C155.512 338.93 157.137 339.736 158.761 340.494C160.156 341.138 161.723 341.868 163.462 342.682C165.24 343.516 166.702 344.217 167.849 344.786ZM167.279 345.79C165.521 344.918 164.213 344.674 163.356 345.058C162.498 345.443 161.577 346.629 160.591 348.617L146.374 377.285C145.388 379.273 145.002 380.724 145.215 381.639C145.466 382.573 146.471 383.477 148.229 384.348C151.44 385.941 154.332 386.447 156.906 385.866C159.538 385.266 161.975 383.712 164.218 381.205C166.462 378.698 168.616 375.361 170.683 371.195C172.806 366.914 174.12 363.16 174.624 359.934C175.186 356.688 174.872 353.913 173.681 351.608C172.509 349.265 170.376 347.325 167.279 345.79Z" fill="#382104"/>
<path d="M143.824 328.882L143.067 329.915C141.865 329.246 140.825 328.934 139.946 328.978C139.093 328.987 138.223 329.381 137.335 330.159C136.483 330.963 135.438 332.208 134.203 333.894L113.102 362.706C112.715 362.369 112.297 362.037 111.849 361.709C111.436 361.406 110.976 361.096 110.469 360.777L108.858 315.967L94.3374 335.795C92.9509 337.688 91.9827 339.226 91.4329 340.41C90.9084 341.56 90.8265 342.61 91.1872 343.562C91.6075 344.505 92.512 345.616 93.9005 346.898L93.1442 347.93C92.5406 347.383 91.7052 346.718 90.6382 345.936C89.5963 345.121 88.6106 344.372 87.6812 343.692C86.8895 343.112 86.068 342.536 85.2166 341.966C84.3905 341.361 83.6768 340.891 83.0757 340.557L83.832 339.524C85.0595 340.158 86.0999 340.471 86.9532 340.461C87.8065 340.451 88.6595 340.045 89.5123 339.242C90.4247 338.429 91.486 337.197 92.6961 335.544L109.713 312.309C110.646 311.036 111.223 310.031 111.445 309.294C111.727 308.549 111.651 307.858 111.217 307.223C110.842 306.579 110.134 305.849 109.092 305.033L109.849 304C110.374 304.438 111.038 304.976 111.838 305.616C112.639 306.255 113.436 306.865 114.227 307.445C115.054 308.05 115.858 308.612 116.64 309.133C117.423 309.653 118.137 310.123 118.781 310.542L120.726 349.806L132.562 333.644C133.948 331.751 134.904 330.23 135.429 329.08C135.978 327.896 136.056 326.816 135.66 325.839C135.3 324.887 134.413 323.788 132.999 322.541L133.755 321.508C134.384 322.022 135.219 322.686 136.261 323.502C137.303 324.318 138.289 325.067 139.218 325.747C140.044 326.352 140.866 326.928 141.683 327.473C142.534 328.044 143.248 328.513 143.824 328.882Z" fill="#382104"/>
<path d="M102.168 289.213L82.8072 327.582C82.0657 329.054 81.7157 330.259 81.7573 331.198C81.8591 332.14 82.0941 332.847 82.4621 333.319L81.511 334.176C80.7178 333.167 79.7358 332.013 78.5651 330.714C77.4546 329.417 76.314 328.119 75.1433 326.819C73.8298 325.361 72.5718 323.996 71.3694 322.724C70.1986 321.425 69.2389 320.423 68.4902 319.719L69.4413 318.862C70.961 320.422 72.1442 321.194 72.991 321.178C73.898 321.165 74.8744 320.113 75.9201 318.023L90.7516 290.022L92.759 289.764L67.417 299.497C65.0451 300.37 63.233 301.227 61.9806 302.068C60.7568 302.941 59.9722 303.791 59.6268 304.619C59.31 305.478 59.3246 306.355 59.6706 307.249C60.0769 308.147 60.6925 309.085 61.5174 310.065L60.5663 310.921C59.6874 309.818 58.8197 308.791 57.963 307.84C57.1381 306.86 56.2831 305.879 55.3979 304.896C54.7697 304.199 54.1542 303.547 53.5514 302.942C53.0088 302.339 52.4917 301.829 52 301.411L52.9511 300.554C53.6775 301.105 54.7195 301.402 56.0768 301.442C57.4342 301.483 59.2845 301.051 61.6279 300.146L99.213 285.932C99.6381 286.468 100.108 287.021 100.622 287.592C101.164 288.194 101.68 288.735 102.168 289.213ZM85.0985 310.617L84.1474 311.474L71.3836 297.303L72.763 296.921L85.0985 310.617Z" fill="#382104"/>
<path d="M73.8362 257.604L72.8455 258.414C71.8939 257.318 71.0594 256.568 70.3419 256.162C69.6845 255.763 68.9775 255.708 68.221 255.996C67.4975 256.257 66.5248 256.887 65.3029 257.887L40.1391 278.474C39.1154 279.311 38.4099 279.999 38.0226 280.536C37.6624 281.106 37.5753 281.674 37.7614 282.238C37.9745 282.835 38.4458 283.58 39.1752 284.472L41.161 286.899C42.0795 288.022 43.2082 288.862 44.5471 289.421C45.886 289.979 47.3585 290.263 48.9646 290.272C50.6037 290.254 52.3163 289.955 54.1025 289.376C55.8888 288.797 57.7155 287.964 59.5828 286.877L60.5149 288.016C59.3111 288.836 57.8175 289.975 56.0342 291.434C55.2747 292.055 54.1819 292.977 52.7559 294.199C51.3299 295.42 49.9084 296.749 48.4914 298.184C47.1796 296.445 45.6591 294.52 43.9301 292.406C42.234 290.266 40.7106 288.37 39.3598 286.719C38.6843 285.893 37.8198 284.836 36.7662 283.548C35.7125 282.26 34.5613 280.887 33.3125 279.428C32.0968 277.942 30.851 276.453 29.5752 274.961C28.3324 273.442 27.1407 272.019 26 270.692L26.9907 269.881C27.9213 270.884 28.7018 271.568 29.3322 271.935C29.9626 272.301 30.6425 272.324 31.372 272.002C32.1286 271.714 33.1012 271.084 34.2901 270.111L58.8595 250.011C60.0813 249.011 60.8919 248.183 61.2912 247.525C61.7505 246.874 61.8496 246.186 61.5885 245.463C61.3874 244.745 60.8846 243.861 60.0801 242.811L61.0708 242C61.7132 242.853 62.5852 243.986 63.6869 245.4C64.8156 246.847 66.0284 248.363 67.3252 249.948C68.5139 251.401 69.6921 252.808 70.8598 254.168C72.0546 255.561 73.0467 256.706 73.8362 257.604Z" fill="#382104"/>
</svg>
