<?xml version="1.0" encoding="UTF-8"?>
<svg id="Layer_1" data-name="Layer 1" xmlns="http://www.w3.org/2000/svg" viewBox="0 0 560.54 449.69">
  <defs>
    <style>
      .cls-1 {
        fill: #fff;
      }

      .cls-1, .cls-2 {
        stroke: #362311;
        stroke-miterlimit: 10;
        stroke-width: 2px;
      }

      .cls-2 {
        fill: #362311;
      }
    </style>
  </defs>
  <g>
    <path class="cls-2" d="M324.84,437.03l-22.07-45.08c-6.83-7.42-8.24,4.36-9.98,9.03-4.81,12.89-10,25.65-14.63,38.61-.86,3.59-6.46,2.68-7.26,5.24-.74,2.38.63,2.79,2.21,3.86h5.76l4.56-.96c2.96-.42,8.86,1.6,8.38-3.07-.4-4-5.84-1.38-6.24-4.4-.24-1.86,1.45-3.41,2.08-5.1.44-1.19.69-4.41,1.29-4.94,3.23-1.36,6.85-.43,10.26-.77,3.76-.38,7.68-3.24,10.59.56.88,1.17,4.26,9.27,3.6,10.02-2.75-.34-8.29,3.31-4.93,5.81,3.29,2.44,10.39-.88,14.15-1.15,2.48-.18,5.31.75,7.76-.28,3.44-6.08-3.73-3.58-5.53-7.38Z"/>
    <path class="cls-2" d="M304.33,422.11c-1.95.41-12.03,1.49-12.48-.55l5.51-14.11,1.87.99c.35,2.49,7.88,11.76,5.1,13.67Z"/>
  </g>
  <path class="cls-2" d="M559.54,253.05c-3.53,4.64-3.38,10.88-5.82,16-.69,1.45-1.36,2.98-3.1,3.15-5.74.55.36-6.19-3.69-8.23l-38.59-12.74c-2.24-.04-5.98,9.31-3.78,11.45,1.25,1.21,5.59,1.7,5.54,4.54-.06,3.68-9.24.99-11.16.12-6.26-2.84-1.44-8.15.14-12.59,2.96-8.35,4.89-17.11,8.26-25.31,2.07-5.04,1.69-7.41,7.67-5.97,2.38.57,9.66,2.64,8.22,5.98-1.99,2.77-7.27-.17-9.31,2.37-1.05,1.31-3.47,7.11-2.4,8.57,2.59,3.53,25.71,9.44,31.12,11.1,2.75.84,6.73,3.64,9.69,2.29,1.8-.82,3.61-6.98,7.2-3.59v2.88Z"/>
  <g>
    <path class="cls-2" d="M207.63,379.63c-12.27-4.84-25.85-7.27-37.53-13.8-1.85-1.04-5.11-5.11-7.29-1.73-2.42,3.76,2.56,4.69,2.84,6.69.52,3.84-7.27,14.19-9.52,17.81-6.46,10.45-9.75,21.94-24.7,13-7.45-4.45-10.07-8.97-5.7-17.01,3.04-5.59,7.08-12.4,10.44-17.86.89-1.45,5.45-8.46,6.45-8.92,1.87-.87,4.78,2.08,7.12,1.14,2.9-6.76-5.59-8-9.85-10.4-12.45-7-23.35-21.89-34.22-31.01-1.66-1.4-3.77-3.14-5.94-3.48-1.55.17-8.88,8.55-8.98,10.19-.48,7.59,7.82-.91,9.69-.48,1.24.29,7.15,5.69,7.15,6.71-2.38,4.1-5.76,7.69-8.88,11.28-2.68,3.1-5.82,6.64-8.63,9.59-1.91,2-9.89,10.45-12.05,10.55-1.94.1-5.51-4.78-7.3-1.59-2.74,4.86,4.04,7.1,6.64,9.48,1.44,1.32,10.41,13.44,11.88,6.62.7-3.23-2.26-4.15-2.27-6.12,0-2.93,9.85-11.54,12.21-14.14,5.09-5.61,9.81-11.59,15.13-17,3.34-2.73,7.95,4.22,9.6,6.71-.07,2.63-4.51,4.43-3.79,7.06,4.46,6.31,6.58-2.07,9.3-2.54,5.08-.87,2.1,4.46.95,6.73-4.24,8.4-17.42,25.08-17.42,33.8,0,12.41,19.88,23.83,31.07,20.6,10.27-2.96,14.23-14.34,19.29-22.44,2.91-4.65,6.25-9.17,9.24-13.78,1.56-1.33,10.1,2.86,10.59,3.86,1.5,3.11-1.64,7.44-2.65,10.31-2.99,8.5-5.61,21.1-9.21,28.67-3.31,6.95-9.33-1.33-9.43,7l21.27,7.26c6.65-3.88-2.7-6.08-2.59-9.78.05-1.75,4.93-16.46,5.8-17,.44-.13,1.14-.21,1.54-.1,1.38.37,7.6,23.8,8.93,27.12,2.36,5.9,3.55,5.13,9.12,6.71,1.8.51,4.09,2.75,5.41-.38,1.18-2.78-2.91-5.02-3.99-7.27-1.28-2.68-2.18-7.58-3.2-10.71-1.32-4.05-4.02-8.09-3.42-12.5,5.39-.75,11.46-1.63,15.01-6.34,7.42-9.85,2.02-18.52-8.11-22.51Z"/>
    <path class="cls-2" d="M200.31,402.06c-2.9.94-7.2-.07-9.99-1.3-4.08-1.78,1-9.17,1.86-12.1.37-1.27.19-3.87.92-4.6,2.97-2.96,13.71,1.77,14.66,5.99,1.35,6.05-1.88,10.22-7.45,12.01Z"/>
  </g>
  <g>
    <path class="cls-2" d="M492.74,358.66c-1.12-1.13-6.41.6-8.72.32-2.18-.27-4.67-1.83-6.79-2.33-2.17-.51-4.05-.29-5.99-.72-1.56-.35-8.29-2.14-9.11-2.9-1.32-1.23,2.16-6.36,2.42-8.63,1.51-13.23-8.22-21.42-20.48-14.71-5.8,3.17-9.92,8.44-14.8,12.53-2.06,1.73-10.05,6.6-10.68,8.51-.22.64-.09,1.39-.1,2.06l-3.1-.51c-7.56,3.09-14.6,7.9-21.84,11.78-3.29,1.76-13.27,4.52-12.84,9.03.32,3.38,4.82.41,7.08,1.51,1.48.73,10.33,17.17,11.76,19.89,1.88,3.59,7.9,14.14,8.66,17.27.53,2.18-2.71,7.5,2.18,6.95,2.62-.29,11.27-6.5,14.32-8.16,4.68-2.53,10.02-4.48,14.55-7.03,4.16-2.34,4.26-2.86,2.98-7.58-.74-2.72-3.48-10.75-7.45-8.4-3.21,3.25,1.89,7.65-.26,10.29-.89,1.09-4.84,3.36-6.3,4.25-1.56.96-7.82,4.6-9.14,4.81-3.15.48-3.7-4.67-4.73-6.59-1.18-2.21-6.31-8.05-4.89-10.5.26-.44,8.04-4.5,9-4.69,5.19-1.02,2.91,4.58,7.92,3.63,5.17-.98-.21-6.78-1.27-8.78-1.41-2.69-3.89-11.77-8.23-8.99-1.97,1.26.21,4.54.19,6.05-.02,1.82-2.6,3.3-4.02,4.14-1.25.75-6.04,3.13-7.2,2.73-1.44-.49-2.72-5.18-3.5-6.6-1.3-2.37-5.19-6.29-3.57-8.95.54-.91,12.08-6.75,13.3-6.8,2.97-.14,3.34,5.24,6.1,5.14,7.32-.25-1-11.04.3-12.94,3.5,2.39,6.2-2.11,8.77-1.35.62.18,4.6,4.33,5.39,5.18,4.24,4.6,8.24,10.21,12.24,15.1,2.49,3.04,7.83,7.78,9.21,11.42,1.35,3.55-3.99,6.17-2.06,8.77,2.48,3.34,6.55-2.57,8.44-4.1,2.21-1.78,11.64-7.94,11.72-10.32.04-.98-1.11-2.54-2.14-2.65-2.13-.21-5.26,3.26-6.86,2.32-.95-2.1-13.5-14.76-12.08-16.21,4.16,1.16,8.38.67,12.57,1.58,6.33,1.37,17.44,7.87,23.38,3.9.56-.38,5.3-4.27,5.51-4.56.72-1.01,1.08-3.22.16-4.16Z"/>
    <path class="cls-2" d="M447.93,358.5c-.95.17-11.47-12.48-11.59-13.7-.23-2.32,7.1-7.33,9.37-7.72,4.46-.77,8.25.95,9.82,5.3,2.8,7.75-2.68,11.38-7.6,16.12Z"/>
  </g>
  <path class="cls-2" d="M524.4,311.9c2.18-4.44,9.81-11.36,8.01-16.64-.85-2.49-4.37-2.65-4.39-6.11-.03-6.73,14.36,3.74,14.15,6.25-4.59,8.03-10.15,15.5-14.97,23.38-1.23,2.02-3.87,8.41-5.55,8.87-2.44.68-2.72-3.09-3.65-4.55-2.39-3.73-21.64-13.69-26.73-16.92-2.53-1.6-7.77-6.65-10.66-6.42-.85.07-2.63,1.55-3.35,2.18-9.57,8.31-1.81,10.29,4.58,16.07,7.8,7.06,15.05,15.01,24.23,20.33.89-1.76,5.37-5.54,6.7-2.82,1.88,3.84-4.7,8.66-6.95,11.28-1.74,2.03-6.18,10.22-9.61,8.15-2.95-1.78,1.75-7.13.73-9.34-8.7-7.88-17.46-16.51-26.9-23.49-1.37-1.01-3.67-3-5.17-3.51-2.61-.89-3.5,2.88-5.89,3.01-1.2.07-2.36-1.11-2.48-2.23-.34-3.26,7.29-9.39,9.46-11.93,8.01-9.38,16.05-21.17,22.47-31.73,1.39-2.29,3.27-8.23,6.19-8.69,1.58-.25,9.67,5.51,10.12,6.97.99,3.25-1.84,4.36-4.61,3.65-2.1-.54-2.69-2.24-4.86-.85-2.41,1.55-3.08,4.09-4.42,6.13-1.16,1.77-4.57,4.78-3.53,7.02.94,2.03,10.22,6.92,12.27,8.88,3.04,1.57,7.93-7.61,8.13-9.64.28-2.89-4.71-3.12-2.64-7.39,1.74-1.78,3.43-.38,5.19.58,2.17,1.19,8.53,4.82,10.17,6.14,1.41,1.14,2.76,3.44,1.01,4.84-2.02,1.61-5.02-1.4-7.47-.28-1.4.64-6.99,8.65-6.66,9.96.43,1.7,3.03,1.84,4.21,2.54,2.65,1.57,4.99,3.82,7.71,5.24,1.23.64,3.97,2.28,5.16,1.07Z"/>
  <g>
    <path class="cls-2" d="M257.71,414.4c0-1.72,3.36-3.93,4.48-5.63,3.49-5.33,3.43-13.88-2.35-17.55-6.38-4.04-14.61-2.34-21.51-2.96-3.36-.3-9.07-2.89-11.89-2.3-1.89.4-2.74,2.05-2.18,3.89.71,2.33,6.15,1.08,5.65,6.27-.22,2.24-1.7,5.14-1.92,8.19-.64,8.72-2.03,13.51-3.29,21.65-.46,2.98.25,8.73-1.75,11.19-1.06,1.3-6.05,3.88-1.45,5.82,3.71,1.56,19.3,2.78,23.49,2.31,10.77-1.2,22.75-12.04,18.42-23.58-1.45-3.86-4.38-4.03-5.7-7.3Z"/>
    <path class="cls-2" d="M234.73,437.42c.28-3.19-.4-6.97,0-10.07.37-2.93,2.37-6.92,2.83-10.01,5.16-2.13,12.82.48,14.67,5.95,3.74,11.08-8.05,19.21-17.5,14.13Z"/>
    <path class="cls-2" d="M251.48,408.61c-1.85,1.64-10.62,3.06-12.32,1.6-1.82-1.57.22-13.54,1.78-15.97,1.85-1.23,9.93,1.19,11.39,2.81,2.15,2.39,1.58,9.43-.85,11.56Z"/>
  </g>
  <path class="cls-2" d="M375.41,388.63c-1.66-1.7.49-5.48-5.15-6.12-16.84-1.91-30.87,9.97-26.49,27.43,3.82,15.22,16.87,22.85,31.85,16.77,4.7-1.91,6.12-2.48,5.39-7.96-1.05-7.9-4.8-5.69-10.92-5.62-.71-.45-.52-3.5.04-4.13.49-.56,10.41-2.91,12.14-3.45,2.6-.81,5.3-3.68,7.85-.65.43,1.4-1.38,3.95-1.39,5.66-.02,1.88,1.41,6.52,2.05,8.52.58,1.83,2.26,2.52.86,4.95-.96,1.65-10.44,6.97-12.65,7.97-16.42,7.4-36.75,6.04-44.22-12.56-8.55-21.3,5.88-37.98,26.14-42.91,3.38-.82,13.45-2.72,16.31-1.43,2.59,1.17,4.65,10.59,3.28,12.86-.76,1.27-4.03,1.77-5.09.69Z"/>
  <g>
    <path class="cls-2" d="M87.91,295c-2.06-1.01-18.46,4.02-22.06,4.81-7.5,1.64-15.11,2.77-22.65,4.22-3.19.61-7.36,2.64-10.61,1.67-1.33-.4-3.42-4.17-6.09-1.58-2.75,2.68,1.76,6.01,3.07,7.95,1.15,1.69,8.1,14.28,9.78,6.81.57-2.56-.87-3.47-.85-4.71.02-2.63,10.42-4.51,12.81-2.48l8.89,13.43c.3.45.39.87.28,1.41-.2.93-4.78,7.85-5.68,8.26-2.56,1.18-2.42-.8-3.69-1.57-1.3-.79-3.53-.56-4.22.86-1.66,3.4,3.19,6.82,4.76,9.15,1.75,2.57,5.53,12.14,9.84,8.81,2-1.54-.28-4.7.05-7.13.56-4.08,8.28-13.59,10.74-17.58,3.86-6.28,7.33-12.78,11.11-19.1,2.13-3.55,8.36-9.4,4.52-13.23Z"/>
    <path class="cls-2" d="M71.02,310.25c-.67,1.25-5.33,8.7-6.35,8.47-1.9-1.08-1.92-3.19-2.93-4.75-.74-1.16-3.97-3.59-2.89-5.31l14.18-3.82c.14,1.94-1.11,3.74-2.01,5.41Z"/>
  </g>
  <path class="cls-1" d="M297.35,407.45l1.87.99c.35,2.49,7.88,11.76,5.1,13.67-1.95.42-12.03,1.5-12.47-.55l5.5-14.11Z"/>
  <path class="cls-1" d="M193.09,384.06c2.97-2.96,13.72,1.76,14.66,5.98,1.35,6.06-1.88,10.22-7.44,12.02-2.9.93-7.2-.08-10-1.3-4.08-1.78,1.01-9.17,1.86-12.1.37-1.27.19-3.87.92-4.6Z"/>
  <path class="cls-1" d="M445.71,337.08c4.46-.77,8.25.95,9.82,5.3,2.8,7.75-2.69,11.39-7.6,16.13-.95.17-11.47-12.49-11.59-13.7-.23-2.32,7.1-7.33,9.37-7.72Z"/>
  <path class="cls-1" d="M234.72,427.35c.37-2.93,2.38-6.92,2.84-10,5.16-2.14,12.82.48,14.66,5.94,3.75,11.08-8.04,19.21-17.5,14.13.29-3.19-.39-6.97,0-10.07Z"/>
  <path class="cls-1" d="M252.32,397.05c2.15,2.39,1.58,9.43-.84,11.56-1.85,1.64-10.62,3.06-12.32,1.6-1.82-1.57.21-13.54,1.78-15.97,1.85-1.23,9.93,1.19,11.38,2.81Z"/>
  <path class="cls-1" d="M73.03,304.84c.13,1.94-1.12,3.74-2.01,5.42-.67,1.25-5.33,8.7-6.35,8.47-1.91-1.08-1.92-3.19-2.93-4.76-.74-1.15-3.97-3.58-2.89-5.3l14.18-3.83Z"/>
  <g>
    <path class="cls-2" d="M210.03,21.46c13.87-11.08,36.43-16.62,53.8-19.11,8.19-1.18,15.93-2.05,24.15-.56.17.82-.22.97-.79,1.37-2.42,1.71-13.71,1.93-17.54,2.61-35.2,6.24-70.52,26.5-58.08,67.83,12.89,42.84,60.61,69.71,36.52,120.64-1.82,3.86-3.3,7.72-7.28,9.5-10.35,4.64-18.92,9.24-26.48,18.13-1.38,1.62-3.89,6.2-5.05,6.94-2.8,1.8-7.58-.02-10.78-.21-6.48-.38-11.22,2.06-17.51,1.91-.49-.45,2.16-3.78,2.63-4.32,4.36-4.98,10.83-10.06,15.61-15.09,23.09-24.23,42.91-49.37,27.9-84.48-4.82-11.29-12.93-18.92-18.87-29.57-13.65-24.44-24.06-54.94,1.77-75.59Z"/>
    <path class="cls-2" d="M279.68,210.26c4.91.95,9.57-1.41,14.31-1.8,4.58-.37,16.21-.07,20.51,1.07,1.54.41,3.52,1.52,4.18,3l-12.23,3.11c-5.25,2.16-14.05,5.2-15.37,11.49-.31,1.46-.75,4.18,1.08,4.72,4.4,1.32,4.26-3.38,6.62-5.65,1.44-1.38,6.08-3.54,8.07-4.4,13.08-5.64,30.35-6.4,43.88-1.97,4.02,1.31,7.46,4.03,11.62,4.45.19,1.03-.47,1.14-1.2,1.43-2.01.79-7.57.99-10.4,1.59-8.44,1.8-24.45,7.98-22.96,18.82.13.94.27,1.72,1.31,2.03,5.51,1.64,3.87-3.83,6.18-7.06,6.45-9.02,29.84-9.67,39.63-8.03,18.41,3.08,34.31,17.83,35.44,36.99,1.19,20.04-10.98,31.32-29.28,35.99-7.42,1.89-22.75,3.3-30.45,3.13-3.26-.08-7.55-1.67-11.06-1.93-17.22-1.28-37.53-2.94-53.48-10.33-5.77-2.68-2.52-2.71-1.21-7.41,9.43-33.81-32.98-45.03-58.32-40.07-2.35.46-6.47,2.63-8.61,1.45-.97-.53-3.52-7.39-3.73-8.74-2.72-17.3,20.35-30.78,34.32-34.99,9.93-2.99,21.03-3.7,31.3-2.53.46,1.6-1.85,1.06-2.38,1.48.29,1.66.19,3.76,2.23,4.16Z"/>
    <path class="cls-2" d="M175.23,239.38c1.04-1.19,11.57-3.33,12.42-2.58.42,2.82,2.52,5.31,5.55,5.24,1.23-.03,5.34-1.2,6.06-2.15,1.36-1.78-1.82-3.17-.53-3.88,11.59-1.83,8.49,3.55,10.2,10.93.44,1.88,2.81,5.4,2.05,7.06-.61,1.34-5.69,3.09-7.4,4.12-6.18,3.72-14.23,12.28-16.21,19.28-.63,2.2-1.25,12.55-2.86,13.01-.68.19-11.67-4.68-13.13-5.46-13.29-7.15-22.78-22.12-11.97-35.97,5.02-6.42,7.93-4.55,15.29-5.57.28-1.33-.43-2.94.53-4.03Z"/>
    <path class="cls-2" d="M199.7,268.87c3.71,20.81,34.56,18.97,50,14.73,5.93-1.63,15.14-4.68,11.5-12.65-4.48-9.8-29.75-13.46-38.74-10.26-4.89,1.74-9.95,10.98-3.57,13.22,1.72.61,10.63,2.61,12.25,2.66,3.06.1,10.38-1.66,9.37-5.94-3.14-2.58-7.4-.72-10.82-.76-1.31-.01-6.09-.61-5.49-2.63,5.31-3.38,13.98-1.46,19.84.23,2.79.8,13.86,4.01,9.89,8.37-1.58,1.72-3.14.9-4.99,1.24-11.04,2.04-30.26,6.65-39.42-2.44-3.38-3.36-3.71-6.36-.9-10.04,6.13-8.06,27.35-10.82,36.92-10.13,14.63,1.06,36.13,11.02,34.71,28.49-2.53,30.96-71.43,39.36-85.91,11.17-4.55-8.84-2.74-19.28,5.36-25.26Z"/>
    <path class="cls-2" d="M98.47,263.6c0-2.43,3.28-4.01,5.13-5.18,16.49-10.51,37.06-21.17,54.52-30.39,3.85-2.03,15.55-6.74,17.83-9.03,4.88-4.89-6.11-2.44-7.66-2.37-22.21.9-44.97.67-67.16.96-5.69.07-11.43.16-17.06-.51l90.2-25.89-.7-1.45c-24.27-5.51-48.41-11.96-72.7-17.49-2.25-.52-16.2-2.99-16.8-3.6-.95-.98,2.44-1.69,2.78-1.77,8.77-2.24,18.35-.34,27.19-.12,18.18.44,37.3-2.34,55.19-1.45,3.05.15,5.83,1.99,8.8-.09v-1.77l-80.04-42.27,89.71,19.66-.67-2.91c-11.06-8.19-20.41-18.28-30.5-27.54-11.75-10.77-24.23-20.9-35.03-32.6.68-.96.66-.5,1.31-.37,3.47.68,9.63,5.28,13.07,7.09,18.27,9.63,36.96,18.42,55.03,28.44,2.73,1.52,5.56,3.87,8.29,5.14.99.46,2.7,1.51,3.64.75.58-.47.7-.88.62-1.61-.33-3.25-9.96-15.13-12.4-18.81-9.67-14.54-18.45-29.68-28.39-44.04-1.82-2.73-.12-6.72-3.75-7.76l.95-1.19c-.04.42-.05.71.37.92,5.81,2.98,18.41,14.4,23.64,19.45,9.63,9.31,9.7,17.53,15.57,28.54,10.95,20.54,29.36,38.73,27.11,64-2.25,25.31-37.92,52.47-53.97,70.73-1.58,1.79-2.43,4.13-4.3,5.77-1.83,1.6-4.24,2.28-6.24,3.83-6.12,4.77-8.25,10.65-16.46,13.28-11.2,3.59-24.17,5.92-35.71,8.91-1.72.44-10.56,3.55-11.41,2.74Z"/>
    <path class="cls-2" d="M440.37,293.82c-.24.85-3.96,5.22-4.84,6.23-31.95,36.27-87.99,61.56-135.79,66.16-70.63,6.79-147.36-22.68-188.52-81.55-2.65-3.79-3.49-5.36.82-8.21,8.78-5.79,20.21-10.23,29.26-15.84l3.23-.37c.28,2.23-.79,4.36-.96,6.48-1.66,21.61,18.68,30.52,35.95,35.98,4.85,6.67,7.33,11.32,14.89,15.33,20.04,10.62,52.4,8.99,70.7-4.65,2.13-1.58,7.86-7.83,9.75-7.93,1.56-.08,4.04,1.73,5.67,2.28,12.53,4.23,25.97,9.09,38.95,11.42,12.12,2.17,23.97,4.54,36.37,4.88,22.27.63,49.57-1.15,59.17-24.82.6-1.49,3.95-11.54,3.95-12.36v-8.15l1.14-.68c4.91,3.94,10.84,6.81,15.81,10.59,1.39,1.06,4.96,3.41,4.45,5.21Z"/>
    <path class="cls-2" d="M449.19,280.19l-31.63-12.07c-2.98-1.78-1.96-5.63-2.54-8.49-.56-2.73-2.99-5.06-2.77-8.02l11.67,7.28c7.32,4.91,14.14,10.51,21.29,15.65,1.71,1.23,8.96,4.4,3.98,5.65Z"/>
    <path class="cls-2" d="M379.62,30.32c4.48-2.09,2.58,2.44,1.68,5.03-3.21,9.22-10.25,21.68-14.7,30.86-6.55,13.52-13.96,26.65-19.6,40.58,1.25.3,2.45.94,3.64.05,20.3-17.1,42.67-31.52,63.97-47.31,1.29-.96,7.92-7.39,9.16-6.2l-58.05,72.41c2.04,2.08,4.35-.62,6.24-1.43,23.53-10.13,47.6-19.45,71.47-28.79,2.98-1.16,5.6-3.45,9.12-3.1.24,1.32-.63,1.85-1.43,2.64-6.83,6.74-18.1,13.18-26.07,19.02-12.25,8.99-24.29,18.3-36.64,27.16-1.62,1.16-11.71,6.6-10.22,8.71,2.4.39,4.89-.95,7.5-1.37,18.36-2.92,37.76-4.07,55.99-7.34,5.33-.95,7.34-1.61,12.95-2.02,6.06-.44,11.78-3.13,18.07-2.21.15,1.3-1.47,1.73-2.4,2.15-27.66,12.41-56.78,21.62-84.41,34.08l-.99,1.41,95.01,10.54c.94.51-.09,1.08-.62,1.31-1.47.66-4.78,1.37-6.48,1.69-23.77,4.48-48.76,5.91-72.74,9.77-1.76.29-4.19.45-4.6,2.59-1.32,6.94,4.15,6.18,8.87,7.9,20.36,7.4,41.68,15.14,61.77,23.14,1.81.72,4.39,1.62,5.98,2.64,1.68,1.09-.35,1.45-1.54,1.56-7.72.7-16.36-1.88-24.06-2.81-14.69-1.78-29.46-3.63-44.14-5.28-5.12-.58-10.82-.15-15.71-1.08-2.57-.5-4.08-.79-5.34-3.3-1.61-3.21-2.69-9.35-4.07-13.2-8.63-24.11-20.29-43.65-39.34-60.89-24.76-22.4-62.52-42.87-75.56-75.05-2.51-6.21-6.23-15.2-.49-20.6,1.05-.22.61.44.84,1.05,3.25,8.86,5.3,20.04,8.9,28.53.36.86.81,1.71,1.53,2.33h1.45c.82-.44,1.16-2.13,1.3-3.03.68-4.21.56-8.76,1.24-13.15,1.73-11.14,5.33-22.08,7.02-33.26.79-2.08,3.56-2.96,5.54-3.58,9.88-3.11,5.99,3.42,6.46,9.85.83,11.35,1.61,22.64,2.9,34.03.64,5.73.28,13.68,5.69,3.29,8.2-15.74,13.41-35.3,23.19-50.18,1.49-2.27,5.82-7.86,8.58-3.97,2.14,3.02-1.62,11.13-2.3,14.55-.72,3.55-.59,7.2-1.24,10.76-2.25,12.51-7.26,27.14-7.89,39.59-.04.66,0,1.41.48,1.91,1.9,2.01,4.78-3.54,5.86-4.7,14.89-15.99,26.94-34.77,41.53-51.03,1.43-1.6,4.94-5.42,6.7-6.25Z"/>
    <path class="cls-2" d="M331.34,7.6c14.02,1.09,26.31,9.26,39.65,12.9-.18.87-.95.88-1.66.97-4.78.54-9.88-1.56-14.56-2.28-25.81-3.95-51.58,2.35-75.54,11.49-40.61,15.49-27.84,47.53-4.93,72.77,30.01,33.06,74.07,52.69,92.78,95.24,3.3,7.51,5.8,15.6,7.27,23.67-.76.65-16.28-6.22-18.6-7.07-26.84-9.89-65.36-18.95-93.94-16.92-3.07.21-5.84,1.39-8.85,1.45-.88-.86,5.51-13.86,6.24-16.05,6.23-18.73-.95-40.6-9.83-57.32-16.94-31.9-61.25-74.91-12.09-102.69,22.27-12.58,68.7-18.12,94.06-16.16Z"/>
  </g>
  <path class="cls-1" d="M325.52,92.3c1.9,2.01,4.78-3.55,5.86-4.7,14.89-15.99,26.95-34.77,41.53-51.04,1.43-1.59,4.94-5.42,6.7-6.24,4.47-2.1,2.57,2.44,1.67,5.03-3.21,9.22-10.25,21.68-14.7,30.87-6.55,13.51-13.97,26.64-19.6,40.58,1.25.3,2.45.93,3.64.04,20.3-17.1,42.68-31.52,63.97-47.31,1.29-.96,7.92-7.38,9.16-6.2l-58.05,72.41c2.04,2.08,4.35-.62,6.24-1.43,23.54-10.13,47.6-19.45,71.47-28.78,2.98-1.16,5.6-3.46,9.12-3.11.24,1.32-.63,1.85-1.43,2.64-6.83,6.74-18.1,13.18-26.07,19.02-12.25,8.99-24.3,18.3-36.64,27.15-1.62,1.17-11.71,6.6-10.23,8.72,2.41.39,4.9-.96,7.5-1.37,18.36-2.93,37.76-4.07,55.99-7.34,5.33-.95,7.34-1.61,12.95-2.02,6.06-.44,11.78-3.13,18.07-2.21.15,1.29-1.47,1.73-2.41,2.15-27.66,12.41-56.78,21.62-84.41,34.08l-.99,1.41,95.01,10.55c.94.51-.09,1.07-.62,1.31-1.47.65-4.78,1.36-6.47,1.68-23.77,4.49-48.77,5.91-72.74,9.78-1.77.28-4.19.44-4.6,2.59-1.33,6.94,4.15,6.18,8.87,7.89,20.36,7.4,41.68,15.14,61.76,23.14,1.81.72,4.4,1.62,5.98,2.64,1.68,1.09-.35,1.45-1.54,1.56-7.72.7-16.36-1.88-24.06-2.81-14.69-1.77-29.46-3.63-44.13-5.28-5.13-.58-10.82-.15-15.71-1.08-2.57-.49-4.08-.79-5.34-3.29-1.61-3.22-2.69-9.35-4.07-13.2-8.64-24.12-20.29-43.66-39.35-60.89-24.76-22.4-62.52-42.87-75.56-75.05-2.51-6.21-6.23-15.2-.49-20.6,1.05-.22.61.44.84,1.05,3.25,8.85,5.3,20.04,8.9,28.53.36.86.81,1.71,1.53,2.33h1.45c.82-.44,1.16-2.12,1.31-3.03.67-4.21.56-8.76,1.24-13.15,1.73-11.14,5.33-22.08,7.02-33.26.78-2.08,3.56-2.96,5.53-3.58,9.88-3.12,6,3.41,6.47,9.85.83,11.35,1.61,22.64,2.89,34.03.65,5.72.28,13.68,5.69,3.29,8.2-15.74,13.41-35.3,23.19-50.18,1.49-2.26,5.82-7.85,8.58-3.97,2.14,3.02-1.61,11.13-2.3,14.55s-.59,7.2-1.23,10.76c-2.26,12.51-7.27,27.14-7.9,39.59-.03.66,0,1.41.48,1.91Z"/>
  <path class="cls-1" d="M279.83,204.62c.46,1.6-1.85,1.06-2.38,1.48.29,1.66.19,3.76,2.23,4.16,4.91.95,9.57-1.41,14.31-1.79s16.21-.08,20.51,1.07c1.54.41,3.52,1.52,4.18,3.01l-12.23,3.11c-5.25,2.16-14.05,5.2-15.37,11.49-.31,1.46-.74,4.18,1.08,4.73,4.4,1.32,4.26-3.38,6.62-5.65,1.44-1.38,6.08-3.54,8.07-4.4,13.07-5.64,30.35-6.4,43.88-1.97,4.02,1.32,7.45,4.04,11.62,4.45.19,1.03-.46,1.14-1.2,1.43-2,.79-7.57.99-10.4,1.59-8.44,1.79-24.45,7.97-22.96,18.82.13.94.27,1.72,1.31,2.03,5.51,1.64,3.87-3.84,6.17-7.06,6.45-9.02,29.84-9.67,39.64-8.03,18.41,3.08,34.31,17.83,35.44,36.99,1.19,20.04-10.98,31.32-29.29,35.99-7.42,1.89-22.75,3.3-30.44,3.13-3.26-.07-7.56-1.67-11.07-1.93-17.22-1.28-37.53-2.93-53.47-10.33-5.77-2.68-2.52-2.7-1.21-7.41,9.42-33.81-32.99-45.03-58.33-40.07-2.34.46-6.46,2.64-8.61,1.46-.96-.53-3.51-7.39-3.73-8.74-2.72-17.31,20.35-30.79,34.33-34.99,9.93-2.99,21.03-3.7,31.29-2.53Z"/>
  <path class="cls-1" d="M370.98,20.49c-.18.87-.94.89-1.66.97-4.78.55-9.87-1.56-14.55-2.27-25.82-3.95-51.58,2.35-75.55,11.49-40.61,15.49-27.84,47.53-4.93,72.77,30,33.06,74.06,52.69,92.78,95.24,3.3,7.5,5.8,15.59,7.26,23.66-.75.65-16.27-6.21-18.59-7.07-26.84-9.89-65.37-18.95-93.94-16.92-3.07.22-5.84,1.39-8.86,1.46-.87-.86,5.52-13.86,6.24-16.05,6.23-18.73-.96-40.6-9.83-57.32-16.94-31.9-61.25-74.91-12.09-102.69,22.27-12.58,68.7-18.13,94.06-16.16,14.02,1.09,26.31,9.26,39.64,12.89Z"/>
  <path class="cls-1" d="M418.96,278.7l1.15-.68c4.91,3.93,10.83,6.81,15.81,10.59,1.39,1.06,4.96,3.41,4.45,5.21-.24.85-3.96,5.22-4.84,6.22-31.95,36.28-87.99,61.57-135.79,66.16-70.63,6.79-147.35-22.68-188.52-81.55-2.65-3.78-3.49-5.36.83-8.21,8.78-5.79,20.2-10.23,29.25-15.84l3.23-.38c.28,2.23-.79,4.36-.95,6.48-1.66,21.61,18.67,30.52,35.95,35.98,4.85,6.66,7.32,11.31,14.89,15.33,20.03,10.62,52.4,8.99,70.7-4.65,2.13-1.59,7.86-7.83,9.75-7.93,1.56-.08,4.04,1.73,5.66,2.28,12.54,4.23,25.97,9.09,38.95,11.42,12.12,2.17,23.97,4.54,36.38,4.88,22.27.62,49.56-1.16,59.16-24.83.6-1.49,3.95-11.53,3.95-12.35v-8.15Z"/>
  <path class="cls-1" d="M159.87,45.43c-.04.41-.05.7.37.92,5.81,2.97,18.41,14.39,23.63,19.44,9.64,9.32,9.7,17.53,15.58,28.55,10.95,20.54,29.36,38.73,27.11,64-2.26,25.31-37.92,52.47-53.98,70.73-1.58,1.79-2.43,4.13-4.3,5.77s-4.24,2.28-6.24,3.83c-6.12,4.77-8.24,10.64-16.46,13.28-11.2,3.59-24.16,5.92-35.71,8.91-1.72.44-10.55,3.55-11.41,2.74.01-2.43,3.28-4,5.13-5.18,16.49-10.51,37.07-21.16,54.52-30.38,3.85-2.03,15.56-6.74,17.83-9.03,4.88-4.9-6.11-2.44-7.66-2.38-22.22.91-44.97.68-67.17.96-5.69.07-11.43.17-17.05-.51l90.2-25.89-.7-1.45c-24.26-5.51-48.41-11.95-72.7-17.49-2.25-.51-16.2-2.98-16.8-3.6-.95-.97,2.44-1.69,2.78-1.77,8.76-2.23,18.35-.33,27.19-.12,18.18.44,37.3-2.33,55.19-1.45,3.05.15,5.83,1.99,8.8-.08v-1.77s-80.04-42.27-80.04-42.27l89.71,19.66-.68-2.91c-11.06-8.19-20.41-18.28-30.5-27.54-11.74-10.77-24.22-20.9-35.02-32.6.67-.96.66-.5,1.31-.37,3.47.68,9.63,5.29,13.06,7.1,18.27,9.62,36.96,18.41,55.03,28.44,2.73,1.51,5.57,3.87,8.29,5.14.98.46,2.7,1.51,3.64.75.57-.47.69-.88.62-1.6-.33-3.26-9.96-15.13-12.41-18.82-9.67-14.54-18.44-29.67-28.39-44.04-1.82-2.73-.12-6.72-3.75-7.76l.95-1.19Z"/>
  <path class="cls-1" d="M287.98,1.79c.17.82-.22.97-.79,1.37-2.43,1.71-13.71,1.93-17.54,2.61-35.2,6.24-70.52,26.51-58.08,67.84,12.89,42.84,60.62,69.71,36.52,120.64-1.83,3.86-3.3,7.72-7.28,9.5-10.35,4.64-18.92,9.24-26.48,18.13-1.37,1.62-3.89,6.19-5.05,6.94-2.79,1.8-7.58-.03-10.78-.22-6.48-.38-11.21,2.06-17.5,1.91-.49-.45,2.15-3.77,2.63-4.32,4.35-4.98,10.83-10.06,15.61-15.09,23.08-24.23,42.9-49.38,27.9-84.49-4.82-11.29-12.93-18.91-18.88-29.56-13.64-24.44-24.05-54.95,1.77-75.59,13.87-11.08,36.43-16.62,53.8-19.11,8.19-1.17,15.93-2.05,24.15-.56Z"/>
  <path class="cls-1" d="M199.69,268.87c3.71,20.81,34.56,18.97,50.01,14.73,5.92-1.63,15.14-4.68,11.49-12.65-4.48-9.8-29.74-13.46-38.74-10.26-4.89,1.74-9.95,10.98-3.58,13.22,1.72.61,10.64,2.6,12.26,2.65,3.05.1,10.38-1.66,9.37-5.94-3.14-2.58-7.4-.72-10.82-.76-1.31-.01-6.09-.61-5.49-2.63,5.31-3.39,13.97-1.46,19.84.23,2.78.8,13.85,4.01,9.88,8.36-1.57,1.72-3.14.9-4.99,1.24-11.03,2.04-30.26,6.65-39.42-2.44-3.38-3.36-3.7-6.36-.9-10.05,6.13-8.06,27.35-10.82,36.92-10.13,14.63,1.06,36.13,11.02,34.71,28.49-2.53,30.96-71.42,39.36-85.91,11.17-4.55-8.85-2.73-19.29,5.36-25.26Z"/>
  <path class="cls-1" d="M174.7,243.41c.27-1.33-.43-2.94.53-4.03,1.04-1.19,11.58-3.33,12.43-2.58.42,2.82,2.52,5.3,5.55,5.24,1.23-.03,5.34-1.2,6.06-2.15,1.36-1.78-1.82-3.18-.53-3.88,11.6-1.83,8.49,3.55,10.21,10.92.44,1.88,2.8,5.4,2.05,7.06-.62,1.35-5.69,3.09-7.41,4.13-6.18,3.72-14.23,12.28-16.21,19.28-.62,2.19-1.25,12.55-2.85,13.01-.68.19-11.67-4.68-13.13-5.46-13.3-7.15-22.78-22.12-11.97-35.96,5.02-6.43,7.93-4.55,15.29-5.57Z"/>
  <path class="cls-1" d="M412.25,251.61l11.66,7.28c7.32,4.91,14.14,10.51,21.29,15.65,1.71,1.23,8.96,4.41,3.98,5.66l-31.63-12.08c-2.98-1.78-1.96-5.63-2.54-8.49-.56-2.73-2.98-5.06-2.76-8.02Z"/>
  <path class="cls-2" d="M70.87,275.4c-.62-2.14-1.57-10.95-5.23-10.59-4.31,1.98-.07,5.41-4.63,8.37-5.8,3.77-19.52,7.02-26.6,9.38-1.54.52-2.81,1.71-4.54,1.45-.02-2.85,2.67-4.68,4.04-6.74,5.37-8.13,10.11-16.7,15.43-24.86,1.81-2.78,7.96-10.16,8.61-12.49,1.05-3.84-2.56-10.55-3.69-14.32-6.77-1.4-2.9,5.45-4.85,7.47-.85.89-7.26,3.24-8.87,3.83-9.33,3.44-19.08,5.82-28.31,9.58-4.54,2.12-5.87-5.91-9.71-2.98-.52.39-.65.96-.9,1.32-.12.56-.32,1.1-.62,1.59,0,.32.02.64.08,1v-.8l2.9,5.97c.19,2.43,1.92,8.97,5.03,8.89,2.74-.08,2.27-4.88,2.73-6.36.97-3.15,15.7-6.32,19.21-7.65,1.87-.71,11.15-5.82,12.35-4.68l-.56,2.08c-8.81,14.45-18.97,28.33-26.75,43.27-.1,1.48-.35,6.31,1.22,6.84,4.97.72,9.09-2.53,13.5-4.12,6.88-2.5,13.98-4.45,20.87-6.95,3.48-1.26,11.27-6,14.74-4.43,1.9.86,1.72,5.46,5.48,3.05,3.01-1.93-.33-5.07-.93-7.12Z"/>
  <path class="cls-2" d="M208.24,21.46c13.87-11.08,36.43-16.62,53.8-19.11,8.19-1.18,15.93-2.05,24.15-.56.17.82-.22.97-.79,1.37-2.42,1.71-13.71,1.93-17.54,2.61-35.2,6.24-70.52,26.5-58.08,67.83,12.89,42.84,60.61,69.71,36.52,120.64-1.82,3.86-3.3,7.72-7.28,9.5-10.35,4.64-18.92,9.24-26.48,18.13-1.38,1.62-3.89,6.2-5.05,6.94-2.8,1.8-7.58-.02-10.78-.21-6.48-.38-11.22,2.06-17.51,1.91-.49-.45,2.16-3.78,2.63-4.32,4.36-4.98,10.83-10.06,15.61-15.09,23.09-24.23,42.91-49.37,27.9-84.48-4.82-11.29-12.93-18.92-18.87-29.57-13.65-24.44-24.06-54.94,1.77-75.59Z"/>
  <path class="cls-2" d="M277.89,210.26c4.91.95,9.57-1.41,14.31-1.8,4.58-.37,16.21-.07,20.51,1.07,1.54.41,3.52,1.52,4.18,3l-12.23,3.11c-5.25,2.16-14.05,5.2-15.37,11.49-.31,1.46-.75,4.18,1.08,4.72,4.4,1.32,4.26-3.38,6.62-5.65,1.44-1.38,6.08-3.54,8.07-4.4,13.08-5.64,30.35-6.4,43.88-1.97,4.02,1.31,7.46,4.03,11.62,4.45.19,1.03-.47,1.14-1.2,1.43-2.01.79-7.57.99-10.4,1.59-8.44,1.8-24.45,7.98-22.96,18.82.13.94.27,1.72,1.31,2.03,5.51,1.64,3.87-3.83,6.18-7.06,6.45-9.02,29.84-9.67,39.63-8.03,18.41,3.08,34.31,17.83,35.44,36.99,1.19,20.04-10.98,31.32-29.28,35.99-7.42,1.89-22.75,3.3-30.45,3.13-3.26-.08-7.55-1.67-11.06-1.93-17.22-1.28-37.53-2.94-53.48-10.33-5.77-2.68-2.52-2.71-1.21-7.41,9.43-33.81-32.98-45.03-58.32-40.07-2.35.46-6.47,2.63-8.61,1.45-.97-.53-3.52-7.39-3.73-8.74-2.72-17.3,20.35-30.78,34.32-34.99,9.93-2.99,21.03-3.7,31.3-2.53.46,1.6-1.85,1.06-2.38,1.48.29,1.66.19,3.76,2.23,4.16Z"/>
  <path class="cls-2" d="M173.44,239.38c1.04-1.19,11.57-3.33,12.42-2.58.42,2.82,2.52,5.31,5.55,5.24,1.23-.03,5.34-1.2,6.06-2.15,1.36-1.78-1.82-3.17-.53-3.88,11.59-1.83,8.49,3.55,10.2,10.93.44,1.88,2.81,5.4,2.05,7.06-.61,1.34-5.69,3.09-7.4,4.12-6.18,3.72-14.23,12.28-16.21,19.28-.63,2.2-1.25,12.55-2.86,13.01-.68.19-11.67-4.68-13.13-5.46-13.29-7.15-22.78-22.12-11.97-35.97,5.02-6.42,7.93-4.55,15.29-5.57.28-1.33-.43-2.94.53-4.03Z"/>
  <path class="cls-2" d="M197.91,268.87c3.71,20.81,34.56,18.97,50,14.73,5.93-1.63,15.14-4.68,11.5-12.65-4.48-9.8-29.75-13.46-38.74-10.26-4.89,1.74-9.95,10.98-3.57,13.22,1.72.61,10.63,2.61,12.25,2.66,3.06.1,10.38-1.66,9.37-5.94-3.14-2.58-7.4-.72-10.82-.76-1.31-.01-6.09-.61-5.49-2.63,5.31-3.38,13.98-1.46,19.84.23,2.79.8,13.86,4.01,9.89,8.37-1.58,1.72-3.14.9-4.99,1.24-11.04,2.04-30.26,6.65-39.42-2.44-3.38-3.36-3.71-6.36-.9-10.04,6.13-8.06,27.35-10.82,36.92-10.13,14.63,1.06,36.13,11.02,34.71,28.49-2.53,30.96-71.43,39.36-85.91,11.17-4.55-8.84-2.74-19.28,5.36-25.26Z"/>
  <path class="cls-2" d="M96.68,263.6c0-2.43,3.28-4.01,5.13-5.18,16.49-10.51,37.06-21.17,54.52-30.39,3.85-2.03,15.55-6.74,17.83-9.03,4.88-4.89-6.11-2.44-7.66-2.37-22.21.9-44.97.67-67.16.96-5.69.07-11.43.16-17.06-.51l90.2-25.89-.7-1.45c-24.27-5.51-48.41-11.96-72.7-17.49-2.25-.52-16.2-2.99-16.8-3.6-.95-.98,2.44-1.69,2.78-1.77,8.77-2.24,18.35-.34,27.19-.12,18.18.44,37.3-2.34,55.19-1.45,3.05.15,5.83,1.99,8.8-.09v-1.77l-80.04-42.27,89.71,19.66-.67-2.91c-11.06-8.19-20.41-18.28-30.5-27.54-11.75-10.77-24.23-20.9-35.03-32.6.68-.96.66-.5,1.31-.37,3.47.68,9.63,5.28,13.07,7.09,18.27,9.63,36.96,18.42,55.03,28.44,2.73,1.52,5.56,3.87,8.29,5.14.99.46,2.7,1.51,3.64.75.58-.47.7-.88.62-1.61-.33-3.25-9.96-15.13-12.4-18.81-9.67-14.54-18.45-29.68-28.39-44.04-1.82-2.73-.12-6.72-3.75-7.76l.95-1.19c-.04.42-.05.71.37.92,5.81,2.98,18.41,14.4,23.64,19.45,9.63,9.31,9.7,17.53,15.57,28.54,10.95,20.54,29.36,38.73,27.11,64-2.25,25.31-37.92,52.47-53.97,70.73-1.58,1.79-2.43,4.13-4.3,5.77-1.83,1.6-4.24,2.28-6.24,3.83-6.12,4.77-8.25,10.65-16.46,13.28-11.2,3.59-24.17,5.92-35.71,8.91-1.72.44-10.56,3.55-11.41,2.74Z"/>
  <path class="cls-2" d="M438.58,293.82c-.24.85-3.96,5.22-4.84,6.23-31.95,36.27-87.99,61.56-135.79,66.16-70.63,6.79-147.36-22.68-188.52-81.55-2.65-3.79-3.49-5.36.82-8.21,8.78-5.79,20.21-10.23,29.26-15.84l3.23-.37c.28,2.23-.79,4.36-.96,6.48-1.66,21.61,18.68,30.52,35.95,35.98,4.85,6.67,7.33,11.32,14.89,15.33,20.04,10.62,52.4,8.99,70.7-4.65,2.13-1.58,7.86-7.83,9.75-7.93,1.56-.08,4.04,1.73,5.67,2.28,12.53,4.23,25.97,9.09,38.95,11.42,12.12,2.17,23.97,4.54,36.37,4.88,22.27.63,49.57-1.15,59.17-24.82.6-1.49,3.95-11.54,3.95-12.36v-8.15l1.14-.68c4.91,3.94,10.84,6.81,15.81,10.59,1.39,1.06,4.96,3.41,4.45,5.21Z"/>
  <path class="cls-2" d="M447.4,280.19l-31.63-12.07c-2.98-1.78-1.96-5.63-2.54-8.49-.56-2.73-2.99-5.06-2.77-8.02l11.67,7.28c7.32,4.91,14.14,10.51,21.29,15.65,1.71,1.23,8.96,4.4,3.98,5.65Z"/>
  <path class="cls-2" d="M377.83,30.32c4.48-2.09,2.58,2.44,1.68,5.03-3.21,9.22-10.25,21.68-14.7,30.86-6.55,13.52-13.96,26.65-19.6,40.58,1.25.3,2.45.94,3.64.05,20.3-17.1,42.67-31.52,63.97-47.31,1.29-.96,7.92-7.39,9.16-6.2l-58.05,72.41c2.04,2.08,4.35-.62,6.24-1.43,23.53-10.13,47.6-19.45,71.47-28.79,2.98-1.16,5.6-3.45,9.12-3.1.24,1.32-.63,1.85-1.43,2.64-6.83,6.74-18.1,13.18-26.07,19.02-12.25,8.99-24.29,18.3-36.64,27.16-1.62,1.16-11.71,6.6-10.22,8.71,2.4.39,4.89-.95,7.5-1.37,18.36-2.92,37.76-4.07,55.99-7.34,5.33-.95,7.34-1.61,12.95-2.02,6.06-.44,11.78-3.13,18.07-2.21.15,1.3-1.47,1.73-2.4,2.15-27.66,12.41-56.78,21.62-84.41,34.08l-.99,1.41,95.01,10.54c.94.51-.09,1.08-.62,1.31-1.47.66-4.78,1.37-6.48,1.69-23.77,4.48-48.76,5.91-72.74,9.77-1.76.29-4.19.45-4.6,2.59-1.32,6.94,4.15,6.18,8.87,7.9,20.36,7.4,41.68,15.14,61.77,23.14,1.81.72,4.39,1.62,5.98,2.64,1.68,1.09-.35,1.45-1.54,1.56-7.72.7-16.36-1.88-24.06-2.81-14.69-1.78-29.46-3.63-44.14-5.28-5.12-.58-10.82-.15-15.71-1.08-2.57-.5-4.08-.79-5.34-3.3-1.61-3.21-2.69-9.35-4.07-13.2-8.63-24.11-20.29-43.65-39.34-60.89-24.76-22.4-62.52-42.87-75.56-75.05-2.51-6.21-6.23-15.2-.49-20.6,1.05-.22.61.44.84,1.05,3.25,8.86,5.3,20.04,8.9,28.53.36.86.81,1.71,1.53,2.33h1.45c.82-.44,1.16-2.13,1.3-3.03.68-4.21.56-8.76,1.24-13.15,1.73-11.14,5.33-22.08,7.02-33.26.79-2.08,3.56-2.96,5.54-3.58,9.88-3.11,5.99,3.42,6.46,9.85.83,11.35,1.61,22.64,2.9,34.03.64,5.73.28,13.68,5.69,3.29,8.2-15.74,13.41-35.3,23.19-50.18,1.49-2.27,5.82-7.86,8.58-3.97,2.14,3.02-1.62,11.13-2.3,14.55-.72,3.55-.59,7.2-1.24,10.76-2.25,12.51-7.26,27.14-7.89,39.59-.04.66,0,1.41.48,1.91,1.9,2.01,4.78-3.54,5.86-4.7,14.89-15.99,26.94-34.77,41.53-51.03,1.43-1.6,4.94-5.42,6.7-6.25Z"/>
  <path class="cls-2" d="M329.55,7.6c14.02,1.09,26.31,9.26,39.65,12.9-.18.87-.95.88-1.66.97-4.78.54-9.88-1.56-14.56-2.28-25.81-3.95-51.58,2.35-75.54,11.49-40.61,15.49-27.84,47.53-4.93,72.77,30.01,33.06,74.07,52.69,92.78,95.24,3.3,7.51,5.8,15.6,7.27,23.67-.76.65-16.28-6.22-18.6-7.07-26.84-9.89-65.36-18.95-93.94-16.92-3.07.21-5.84,1.39-8.85,1.45-.88-.86,5.51-13.86,6.24-16.05,6.23-18.73-.95-40.6-9.83-57.32-16.94-31.9-61.25-74.91-12.09-102.69,22.27-12.58,68.7-18.12,94.06-16.16Z"/>
</svg>