<?xml version="1.0" encoding="UTF-8"?>
<svg id="Lag_1" data-name="Lag 1" xmlns="http://www.w3.org/2000/svg" viewBox="0 0 600 600">
  <defs>
    <style>
      .cls-1 {
        fill: #352312;
      }

      .cls-2 {
        fill: #efeadd;
      }
    </style>
  </defs>
  <circle class="cls-1" cx="300" cy="300" r="287.5"/>
  <path class="cls-2" d="M261.62,583.92c16.97,4.27,35.68,3.54,53.21,3.05,10.56-.37,23.43-1.4,23.71-15.03.9-56.31-.01-127.63.34-183.98-1.35-10.42,5.66-11.77,14.28-11.36,11.74-.09,32.83,0,45.79-.05,10.24.63,18.1-1.54,17.39-13.79.59-12.21,1.15-29.18,1.59-41.56,1.24-14.85-1.69-18.68-16.5-17.97-11.32-.04-26.7,0-38.95-.02-11.92-.38-18.95,1.28-21.63-10-4.63-31.22-6.78-77.29,28.45-90.84,12.89-3.91,27.88-1.87,41.12-2.71,12.79.5,14.38-8.22,14.04-18.15-.17-11.53.53-25.2-.44-36.55-1.56-17.14-31.42-8.28-44.07-10.43-20.09,0-40.67-.83-59.69,7.22-23.06,10.01-44.86,27.95-54.96,51.36-9.3,31.3-1.55,69.66-5.85,101.25-4.38,11.27-48.14,4.67-59.65,6.61-8.47-.44-17.48,1.08-16.5,11.79-.3,11.03-.12,26.59-.16,38.43.72,8-2.96,22.44,7.36,24.07,12.78,1.23,26.49-.04,39.41.09,8.14.8,21.95-2.59,26.34,2.55,1.92,34.76-.37,163.4.24,197.74.08,3.82,1.17,6.72,5.03,8.24l.12.05Z"/>
</svg>