<?xml version="1.0" encoding="UTF-8"?>
<svg id="Lag_1" data-name="Lag 1" xmlns="http://www.w3.org/2000/svg" viewBox="0 0 1190.55 841.89">
  <defs>
    <style>
      .cls-1 {
        fill: #010000;
      }
    </style>
  </defs>
  <g>
    <path class="cls-1" d="M684.06,344.44h-10.57v21.85c0,4.62,2.79,7.13,6.19,7.13.47,0,2.62.11,5.49-.63v5.96c-1.79.4-4.39.63-6.74.63-7.6,0-12.3-3.6-12.3-11.59v-23.34h-9.01v-5.95h9.01v-9.24l7.36-2.35v11.59h10.57v5.95Z"/>
    <path class="cls-1" d="M760.24,344.44h-10.57v21.85c0,4.62,2.79,7.13,6.19,7.13.47,0,2.62.11,5.49-.63v5.96c-1.78.4-4.39.63-6.74.63-7.6,0-12.3-3.6-12.3-11.59v-23.34h-9.01v-5.95h9.01v-9.24l7.36-2.35v11.59h10.57v5.95Z"/>
    <path class="cls-1" d="M694.8,338.37c5.04-.72,9.25-1.02,14.34-1.02,11.44,0,16.06,5.83,16.06,16.72v16.53c0,4.54.16,6.66.31,7.83h-6.63l-.26-5.17h-.16c-1.72,2.43-5.64,6.11-12.38,6.11-8.62,0-14.65-3.76-14.65-12.45,0-10.03,11-13.09,18.56-13.82,2.97-.29,4.93-.39,7.83-.23,0-6.89-2.67-9.41-10.03-9.41-4.73,0-7.14.12-12.61.87l-.39-5.95ZM717.84,358.35c-1.57,0-3.29-.01-4.91.14-3.98.37-13.65,1.38-13.65,8.43,0,4.23,4.07,6.5,7.44,6.5,7.29,0,11.12-4.54,11.12-10.5v-4.58Z"/>
    <path class="cls-1" d="M770.32,372.14c3.86,1.13,7.59,1.17,8.91,1.17,3.58,0,7.88-1.24,7.88-5.86,0-7.28-17.31-6.14-17.31-18.07,0-8.3,5.97-11.9,14.47-11.9,2.58,0,5.51.08,8.78.71l-.41,5.91c-2.34-.46-3.26-.69-6.73-.69-4.76,0-8.28,1.4-8.28,4.88,0,8.15,17.31,5.8,17.31,18.56,0,8.64-6.31,12.8-14.68,12.8-4.91,0-7.91-.51-10.43-.94l.48-6.58Z"/>
    <path class="cls-1" d="M906.17,527.73c3.86,1.13,7.59,1.17,8.92,1.17,3.58,0,7.88-1.24,7.88-5.86,0-7.29-17.31-6.14-17.31-18.07,0-8.3,5.97-11.9,14.47-11.9,2.58,0,5.52.08,8.79.71l-.41,5.91c-2.34-.46-3.26-.69-6.73-.69-4.76,0-8.28,1.4-8.28,4.88,0,8.15,17.31,5.8,17.31,18.57,0,8.64-6.31,12.8-14.68,12.8-4.91,0-7.91-.51-10.43-.94l.48-6.58Z"/>
    <rect class="cls-1" x="804.5" y="354.38" width="20.13" height="5.95"/>
    <polygon class="cls-1" points="623.67 397.54 631.03 397.54 631.03 432.55 647.09 416.34 657.12 416.34 638.55 434.04 659.47 456.29 648.89 456.29 631.03 435.77 631.03 456.29 623.67 456.29 623.67 397.54"/>
    <path class="cls-1" d="M681.81,415.4c12.14,0,20.29,8.77,20.29,20.91,0,11.44-8.3,20.92-20.29,20.92s-20.37-9.48-20.37-20.92c0-12.14,8.15-20.91,20.37-20.91M681.81,451.27c8.62,0,12.45-7.83,12.45-14.96,0-7.6-4.62-14.96-12.45-14.96s-12.53,7.36-12.53,14.96c0,7.13,3.84,14.96,12.53,14.96"/>
    <path class="cls-1" d="M713.53,416.34h7.13v6.35h.16c2.19-4.54,7.52-7.29,13.08-7.29,10.34,0,14.96,6.42,14.96,17.16v23.73h-7.36v-20.68c0-9.32-2.04-13.86-8.46-14.26-8.38,0-12.14,6.74-12.14,16.45v18.49h-7.36v-39.95Z"/>
    <path class="cls-1" d="M792.65,416.34h6.89v6.19h.16c1.96-4.15,6.19-7.13,10.42-7.13,2.19,0,3.29.23,4.86.55v6.58c-1.33-.55-2.82-.7-4.07-.7-6.58,0-10.89,6.27-10.89,16.29v18.17h-7.36v-39.95Z"/>
    <path class="cls-1" d="M838.49,415.4c12.14,0,20.29,8.77,20.29,20.91,0,11.44-8.3,20.92-20.29,20.92s-20.37-9.48-20.37-20.92c0-12.14,8.15-20.91,20.37-20.91M838.49,451.27c8.62,0,12.46-7.83,12.46-14.96,0-7.6-4.62-14.96-12.46-14.96s-12.53,7.36-12.53,14.96c0,7.13,3.84,14.96,12.53,14.96"/>
    <rect class="cls-1" x="870.37" y="397.54" width="7.37" height="58.75"/>
    <rect class="cls-1" x="892.07" y="397.54" width="7.36" height="58.75"/>
    <path class="cls-1" d="M958.1,416.34h6.89v6.19h.16c1.96-4.15,6.19-7.13,10.42-7.13,2.19,0,3.29.23,4.86.55v6.58c-1.33-.55-2.82-.7-4.07-.7-6.58,0-10.89,6.27-10.89,16.29v18.17h-7.36v-39.95Z"/>
    <polygon class="cls-1" points="673.88 475.4 681.24 475.4 681.24 510.41 697.3 494.2 707.32 494.2 688.76 511.9 709.68 534.14 699.1 534.14 681.24 513.62 681.24 534.14 673.88 534.14 673.88 475.4"/>
    <path class="cls-1" d="M732,493.25c12.14,0,20.29,8.77,20.29,20.91,0,11.44-8.3,20.92-20.29,20.92s-20.37-9.48-20.37-20.92c0-12.14,8.15-20.91,20.37-20.91M732,529.13c8.62,0,12.46-7.83,12.46-14.96,0-7.6-4.62-14.96-12.46-14.96s-12.53,7.36-12.53,14.96c0,7.13,3.84,14.96,12.53,14.96"/>
    <rect class="cls-1" x="763.88" y="475.4" width="7.36" height="58.75"/>
    <path class="cls-1" d="M803.2,493.25c12.14,0,20.29,8.77,20.29,20.91,0,11.44-8.31,20.92-20.29,20.92s-20.37-9.48-20.37-20.92c0-12.14,8.15-20.91,20.37-20.91M803.2,529.13c8.62,0,12.46-7.83,12.46-14.96,0-7.6-4.62-14.96-12.46-14.96s-12.53,7.36-12.53,14.96c0,7.13,3.84,14.96,12.53,14.96"/>
    <path class="cls-1" d="M893.91,485.27h-8.3v-8.3h8.3v8.3ZM886.07,494.2h7.36v39.95h-7.36v-39.95Z"/>
    <polygon class="cls-1" points="942.08 475.4 949.44 475.4 949.44 510.41 965.5 494.2 975.53 494.2 956.96 511.9 977.88 534.14 967.3 534.14 949.44 513.62 949.44 534.14 942.08 534.14 942.08 475.4"/>
    <path class="cls-1" d="M782.6,422.29h-10.57v21.85c0,4.62,2.79,7.13,6.19,7.13.47,0,2.62.11,5.49-.63v5.96c-1.79.41-4.39.63-6.74.63-7.6,0-12.3-3.6-12.3-11.59v-23.34h-9.01v-5.96h9.01v-9.24l7.36-2.35v11.59h10.57v5.96Z"/>
    <path class="cls-1" d="M1054.13,422.29h-10.57v21.85c0,4.62,2.79,7.13,6.19,7.13.47,0,2.62.11,5.48-.63v5.96c-1.78.41-4.39.63-6.74.63-7.6,0-12.3-3.6-12.3-11.59v-23.34h-9.01v-5.96h9.01v-9.24l7.36-2.35v11.59h10.57v5.96Z"/>
    <path class="cls-1" d="M649.35,330.84c-4.4-.89-6.37-1.13-10.42-1.13-4.36,0-9.51,1.57-9.51,7.28,0,10.5,23.38,8.07,23.38,26.09,0,11.67-8.96,16.29-19.88,16.29-3.09,0-7.54-.25-11.4-1.04l.79-7.1c4.25.81,7.31,1.25,10.87,1.25,4.84,0,11.36-2.19,11.36-8.93,0-12.22-23.38-8.85-23.38-25.85,0-9.71,7.64-14.88,17.46-14.88,3.58,0,7.75.31,11.77,1.17l-1.03,6.85Z"/>
    <path class="cls-1" d="M945,455.36c-2.82,1.02-6.64,1.87-13.22,1.87-14.18,0-20.68-8.62-20.68-21.62,0-11.83,7.44-20.21,18.72-20.21,13.31,0,17.62,9.71,17.62,22.56h-28.51c0,7.91,6.19,13.32,13.16,13.32,5.68,0,10.39-.81,12.9-1.8v5.88ZM939.61,432.48c0-6.11-3.6-11.12-9.95-11.12-7.21,0-10.18,5.95-10.73,11.12h20.68Z"/>
    <path class="cls-1" d="M1018.22,455.36c-2.82,1.02-6.64,1.87-13.22,1.87-14.18,0-20.68-8.62-20.68-21.62,0-11.83,7.44-20.21,18.72-20.21,13.31,0,17.62,9.71,17.62,22.56h-28.51c0,7.91,6.19,13.32,13.16,13.32,5.68,0,10.39-.81,12.91-1.8v5.88ZM1012.83,432.48c0-6.11-3.6-11.12-9.95-11.12-7.21,0-10.18,5.95-10.73,11.12h20.68Z"/>
    <path class="cls-1" d="M871.82,532.42c0,12.14-6.44,19.42-20.77,19.42-3.83,0-9.04-.22-13.22-1.13l.82-6.13c4.75.87,6.16,1.16,11.25,1.16,10.43,0,14.56-4.26,14.56-13.86v-3.92h-.16c-3.13,4.15-8.3,6.19-13.39,6.19-11.44,0-17.08-9.32-17.08-19.66s5.8-21.23,17.86-21.23c7.05,0,10.97,2.59,13.16,6.89h.16v-5.95h6.81v38.23ZM864.46,514.64c0-8.3-3.84-15.43-11.67-15.43s-11.12,8.07-11.12,14.88c0,7.52,4.23,14.1,11.12,14.1s11.67-6.11,11.67-13.55"/>
    <path class="cls-1" d="M653.33,496.73l3.04-5.37-3.45-1.95-3.08,5.44c-2.49-1.03-5.29-1.59-8.35-1.59-12.22,0-20.37,8.77-20.37,20.91,0,6.94,3.06,13.15,8.15,16.97l-3.09,5.45,3.46,1.95,3.04-5.36c2.61,1.22,5.57,1.91,8.81,1.91,11.98,0,20.29-9.48,20.29-20.92,0-7.55-3.15-13.79-8.45-17.44M628.96,514.17c0-7.6,4.62-14.96,12.53-14.96,1.92,0,3.65.45,5.17,1.23l-14.01,24.74c-2.51-2.93-3.69-7.08-3.69-11.01M641.5,529.13c-2.22,0-4.12-.52-5.72-1.4l14.08-24.85c2.65,2.86,4.1,7.04,4.1,11.29,0,7.13-3.84,14.96-12.45,14.96"/>
  </g>
  <g>
    <path class="cls-1" d="M320.63,458.45c-21.14-20.11-34.33-48.51-34.33-79.99,0-60.95,49.41-110.37,110.37-110.37,10.64,0,20.92,1.51,30.67,4.31,4.9,1.41,11.96.32,15.9-6.49,3.94-6.81,25.62-45,29.23-51.47,4.98-8.94-.22-18.16-11.57-18.16h-73.94c-100.59,0-182.13,81.59-182.13,182.18,0,41.1,13.62,79.01,36.58,109.48-7.54,13.18-28.33,50.1-34.86,61.49-3.47,6.05-1.71,11.27,5.85,11.27h55.44c6.65,0,9.57-3.02,12.66-8.36,3.44-6.29,33.25-58.81,42.27-74.38,2.91-5.02,6.16-11.6-2.15-19.5"/>
    <path class="cls-1" d="M472.74,298.53c21.14,20.11,34.33,48.5,34.33,79.99,0,60.96-49.41,110.37-110.37,110.37-10.63,0-20.92-1.51-30.67-4.31-4.9-1.41-11.96-.32-15.9,6.49-3.94,6.81-25.62,45-29.23,51.47-4.98,8.94.22,18.17,11.56,18.17h73.94c100.59,0,182.13-81.6,182.13-182.18,0-41.09-13.61-79.01-36.58-109.48,7.54-13.18,28.33-50.1,34.86-61.49,3.47-6.05,1.71-11.27-5.85-11.27h-55.44c-6.65,0-9.57,3.02-12.66,8.36-3.44,6.29-33.25,58.81-42.27,74.38-2.91,5.02-6.16,11.6,2.15,19.51"/>
    <path class="cls-1" d="M407.15,315.92c0,5.79-4.69,10.48-10.48,10.48s-10.48-4.69-10.48-10.48,4.69-10.48,10.48-10.48,10.48,4.69,10.48,10.48"/>
    <rect class="cls-1" x="334.99" y="420.71" width="123.41" height="14.99"/>
    <path class="cls-1" d="M316.09,392.05c4.29,6.27,7.78,9.77,11.82,14.08l7.19,7.76h123.46l7.05-7.76c4.04-4.31,8.25-8.75,11.82-14.08,16.88-25.16-3.12-51.69-26.22-49.93-.43.03-.84.04-1.27.06-.72-1.17-1.52-2.36-2.43-3.56-7.39-9.85-19.76-14.23-32.28-11.43-7.53,1.69-13.93,5.67-18.48,11.18-4.55-5.51-10.95-9.49-18.48-11.18-12.52-2.8-24.89,1.58-32.28,11.43-.9,1.21-1.71,2.4-2.43,3.56-.42-.03-1.27-.06-1.27-.06-21.05-2.24-44.12,23.76-26.22,49.93M388.92,355.67c-14.12-1.12-23.12-5.24-30.56-8.67-.03-.01-.05-.02-.08-.04,3.94-4.81,10.15-6.8,16.76-5.32,5.58,1.25,12.13,5.46,13.83,13.51.02.14.03.32.05.52M435.24,346.96s-.05.02-.08.04c-7.44,3.43-16.44,7.56-30.56,8.67.02-.2.03-.38.05-.52,1.7-8.05,8.24-12.26,13.83-13.51,6.62-1.48,12.82.51,16.76,5.32M429.28,399.09c6.29-6.65,13.73-15.7,15.61-18.07,1.75-2.2,10.49-11.61,9.98-23.86,10.64,1.38,14.04,10.17,14.04,14.72,0,3.22-1.06,7.93-3.73,11.86-2.94,4.34-6.55,8.19-10.37,12.27,0,0-1.43,1.56-2.83,3.08h-22.7ZM404.23,370.54c16.5-1.09,27.61-5.75,35.45-9.33-.84,3.29-4.28,7.96-5.65,9.64-5.12,6.29-18.99,21.79-25.22,28.24h-4.59s-.05-22.5,0-28.55M384.71,399.09c-6.23-6.46-21.51-23.57-24.21-26.96-2.69-3.39-5.82-7.63-6.66-10.92,7.84,3.58,18.96,8.24,35.45,9.33.05,6.05,0,28.55,0,28.55h-4.59ZM324.61,371.88c0-6.56,5.31-13.59,14.04-14.72-.45,10.81,5.14,17.66,9.26,22.92,3.91,5,10.04,12.36,16.33,19.01h-22.7c-1.4-1.52-2.83-3.08-2.83-3.08-3.82-4.08-7.43-7.92-10.37-12.27-2.67-3.93-3.73-8.57-3.73-11.86"/>
  </g>
</svg>