<svg width="270" height="220" viewBox="0 0 270 220" fill="none" xmlns="http://www.w3.org/2000/svg">
<rect width="270" height="220" fill="#FEB9D0"/>
<path d="M53.7503 175.224L52.224 172.053C53.282 171.496 54.0253 170.925 54.454 170.34C54.8642 169.717 54.9904 168.946 54.8326 168.027C54.6562 167.071 54.2165 165.862 53.5135 164.401L42.4407 141.39C41.9781 140.429 41.5533 139.497 41.1663 138.594C40.8176 137.673 40.5423 136.953 40.3402 136.435C39.7051 136.788 38.9739 137.187 38.1466 137.633C37.3008 138.04 36.6372 138.383 36.1559 138.662L34.3243 134.855L49.6646 127.473L51.1909 130.645C50.1713 131.183 49.4372 131.773 48.9886 132.415C48.5599 133 48.4245 133.752 48.5823 134.671C48.7402 135.589 49.1798 136.798 49.9014 138.297L60.9465 161.25C61.446 162.288 61.8893 163.258 62.2764 164.161C62.6449 165.026 62.911 165.726 63.0746 166.263L71.8128 161.987C74.1196 160.877 75.5373 159.248 76.066 157.099C76.5763 154.913 76.0543 152.204 74.5002 148.975L77.7298 147.421L83.7388 160.794L53.7503 175.224ZM107.589 150.453C103.937 152.211 100.527 153.094 97.3587 153.103C94.1907 153.113 91.3091 152.487 88.7138 151.226C86.1384 149.909 83.8842 148.176 81.9511 146.029C80.0181 143.881 78.4503 141.558 77.2477 139.059C76.0821 136.637 75.311 134.001 74.9343 131.152C74.5392 128.264 74.6686 125.385 75.3228 122.513C76.0154 119.623 77.3252 116.933 79.2522 114.443C81.1791 111.953 83.8535 109.885 87.2753 108.238C90.7739 106.555 94.0973 105.737 97.2453 105.785C100.432 105.814 103.341 106.497 105.973 107.835C108.626 109.115 110.928 110.801 112.881 112.891C114.873 114.963 116.451 117.211 117.617 119.633C118.764 122.016 119.526 124.633 119.902 127.482C120.279 130.331 120.13 133.22 119.456 136.149C118.802 139.02 117.521 141.72 115.612 144.248C113.685 146.738 111.011 148.806 107.589 150.453ZM106.33 146.655C108.483 145.619 110.05 144.25 111.03 142.547C112.048 140.826 112.63 138.936 112.776 136.878C112.921 134.819 112.743 132.726 112.241 130.601C111.759 128.418 111.064 126.384 110.158 124.501C108.918 121.925 107.493 119.651 105.882 117.68C104.252 115.671 102.492 114.079 100.601 112.906C98.7489 111.714 96.7842 111.026 94.7069 110.841C92.6111 110.619 90.5152 111.036 88.4191 112.092C86.3231 113.148 84.7751 114.555 83.7752 116.315C82.7952 118.018 82.2224 119.927 82.0568 122.042C81.9111 124.101 82.0986 126.213 82.6192 128.377C83.1399 130.541 83.8535 132.566 84.76 134.449C85.685 136.372 86.887 138.279 88.3659 140.172C89.8449 142.064 91.5374 143.712 93.4436 145.115C95.3497 146.518 97.3877 147.407 99.5575 147.784C101.766 148.142 104.023 147.766 106.33 146.655ZM151.9 129.13C147.825 131.092 143.91 131.91 140.155 131.586C136.382 131.224 132.967 129.884 129.911 127.566C126.836 125.211 124.355 122.072 122.468 118.151C121.191 115.498 120.337 112.689 119.905 109.725C119.493 106.703 119.614 103.757 120.268 100.885C120.903 97.975 122.175 95.3035 124.082 92.8706C126.009 90.3808 128.645 88.3311 131.99 86.7215C133.143 86.1665 134.448 85.6806 135.905 85.2637C137.361 84.8468 138.854 84.5546 140.383 84.3869C141.933 84.1623 143.374 84.1078 144.708 84.2234L143.256 81.7969L147.293 79.8543L153.732 93.2338L150.56 94.7602C149.161 92.6398 147.581 91.0797 145.822 90.0798C144.062 89.0799 142.19 88.584 140.205 88.5921C138.24 88.5432 136.278 88.9906 134.317 89.9341C132.317 90.8962 130.733 92.2271 129.562 93.9269C128.429 95.6081 127.685 97.5052 127.329 99.618C127.011 101.712 127.054 103.917 127.458 106.232C127.861 108.548 128.618 110.859 129.728 113.165C131.356 116.549 133.337 119.336 135.67 121.528C138.023 123.663 140.55 125.027 143.251 125.622C145.933 126.178 148.659 125.789 151.427 124.457C152.273 124.05 153.187 123.539 154.169 122.925C155.133 122.271 156.06 121.541 156.951 120.734C157.841 119.927 158.588 119.118 159.191 118.306L156.333 112.366C155.852 111.366 155.399 110.377 154.975 109.397C154.551 108.417 154.21 107.611 153.953 106.977C153.318 107.33 152.587 107.729 151.759 108.175C150.913 108.582 150.25 108.925 149.769 109.204L147.937 105.398L162.528 98.3764L164.054 101.548C163.265 101.975 162.685 102.444 162.315 102.953C161.926 103.424 161.698 103.984 161.631 104.632C161.546 105.241 161.612 105.92 161.829 106.667C162.047 107.415 162.369 108.231 162.794 109.115L167.151 118.169L165.71 118.863C164.787 119.307 163.842 119.951 162.875 120.795C161.89 121.601 160.845 122.529 159.741 123.581C158.734 124.539 157.565 125.505 156.234 126.477C154.921 127.487 153.476 128.372 151.9 129.13ZM195.784 108.013C192.132 109.77 188.722 110.654 185.554 110.663C182.386 110.672 179.504 110.047 176.909 108.786C174.333 107.468 172.079 105.736 170.146 103.588C168.213 101.441 166.645 99.1176 165.443 96.6186C164.277 94.1964 163.506 91.5608 163.129 88.7116C162.734 85.8241 162.864 82.9445 163.518 80.0728C164.21 77.1826 165.52 74.4926 167.447 72.0028C169.374 69.513 172.048 67.4448 175.47 65.7982C178.969 64.1146 182.292 63.2967 185.44 63.3444C188.627 63.3736 191.536 64.0569 194.168 65.3944C196.821 66.675 199.123 68.3606 201.076 70.4512C203.068 72.5233 204.646 74.7704 205.812 77.1925C206.959 79.5762 207.721 82.1927 208.097 85.0418C208.474 87.8909 208.325 90.7798 207.651 93.7084C206.997 96.58 205.716 99.28 203.807 101.808C201.88 104.298 199.206 106.366 195.784 108.013ZM194.525 104.215C196.678 103.179 198.245 101.81 199.224 100.107C200.243 98.3861 200.825 96.4961 200.971 94.4373C201.116 92.3785 200.938 90.2862 200.436 88.1603C199.954 85.9775 199.259 83.9442 198.353 82.0603C197.113 79.4844 195.688 77.2109 194.077 75.24C192.447 73.2307 190.687 71.6392 188.796 70.4656C186.944 69.2734 184.979 68.5853 182.902 68.4012C180.806 68.1786 178.71 68.5953 176.614 69.6513C174.518 70.7073 172.97 72.1151 171.97 73.8747C170.99 75.5774 170.417 77.4866 170.252 79.6023C170.106 81.6611 170.294 83.7726 170.814 85.9369C171.335 88.1012 172.048 90.1253 172.955 92.0092C173.88 93.9316 175.082 95.839 176.561 97.7316C178.04 99.6241 179.732 101.272 181.638 102.675C183.545 104.078 185.583 104.967 187.752 105.344C189.961 105.701 192.218 105.325 194.525 104.215Z" fill="black"/>
</svg>
